<svg width="45" height="45" viewBox="0 0 45 45" fill="none" xmlns="http://www.w3.org/2000/svg">
<path fill-rule="evenodd" clip-rule="evenodd" d="M8.59231 3.47318C6.18429 4.15215 4.22919 6.22446 3.60393 8.76042C3.3525 9.78003 3.34762 10.1408 3.37062 25.8851L3.39362 41.6381H20.7257H38.0577C39.2914 41.6381 41.5952 37.8663 41.5952 36.4166C41.5952 30.9985 41.6165 19.8893 41.6165 19.8893L41.638 3.36194L25.2726 3.37309C14.6154 3.38043 8.7975 3.4153 8.59231 3.47318ZM38.6817 21.2389C38.6817 33.2647 38.5751 35.2051 38.5751 36.1068C38.1926 37.2188 37.6394 38.0203 36.9194 38.5057C35.9418 39.1648 37.2219 39.1158 20.9665 39.1158H6.34742V24.5175C6.34742 13.9209 6.37168 9.85136 6.43596 9.6717C7.03885 7.98534 8.1201 6.90892 9.39567 6.72519C9.64694 6.689 16.3392 6.66422 24.2672 6.67006L38.6817 6.68068V21.2389Z" fill="#45B4A7"/>
<path d="M9.81377 12.2109C10.1923 11.3771 11.7311 10.4937 13.276 10.2229C14.8276 9.95107 16.3717 10.2203 17.4366 10.9482L17.6951 11.1249L18.3031 10.7864C20.6961 9.4537 23.8019 10.1288 24.8051 12.1997C25.2481 13.1142 25.25 13.1387 25.251 17.758L25.2518 22.0207L24.8541 22.1166C23.8791 22.3516 22.4715 22.1908 22.0878 21.8006C21.6729 21.3789 21.6707 21.3583 21.6285 17.5814L21.5891 14.0566L21.3014 13.7604C20.9272 13.3753 20.4728 13.29 19.8607 13.4899C19.2371 13.6936 19.2587 13.532 19.2656 17.9568C19.2689 20.0784 19.2703 21.8607 19.2685 21.9175C19.2592 22.2288 17.0203 22.3309 16.4692 22.0452C15.6246 21.6073 15.5662 21.2967 15.5646 17.2437L15.5634 14.0892L15.3412 13.822C14.8974 13.2882 13.9333 13.2333 13.5026 13.7173L13.2791 13.9683V17.9545V21.9407L13.1019 22.0525C12.3695 22.5144 10.1926 22.1198 9.85 21.463L9.65576 21.0906V16.8248C9.65576 12.7292 9.66206 12.545 9.81377 12.2109Z" fill="#007BFF"/>
<path d="M27.1568 13.7323C27.2377 11.8646 28.2482 10.7484 30.3324 10.2245C32.5373 9.67034 35.3146 10.5748 35.5393 11.9204C35.7952 13.4529 35.21 13.9403 33.6484 13.4952C32.0913 13.0514 30.805 13.231 30.805 13.8923C30.805 14.2529 30.9535 14.361 31.7348 14.5683C34.0717 15.1881 35.0345 15.7376 35.6396 16.7971C36.6181 18.5105 36.0108 20.8512 34.343 21.7938C32.4203 22.8806 28.6432 22.5856 27.6138 21.2682C26.7662 20.1837 27.349 18.169 28.3818 18.613C29.8088 19.2265 29.811 19.2271 30.8968 19.2376C32.059 19.2489 32.3534 19.1311 32.4059 18.6338C32.4507 18.2102 32.22 18.0451 31.2382 17.7979C27.9959 16.9814 27.0566 16.0457 27.1568 13.7323Z" fill="#007BFF"/>
<path d="M27.3991 27.9143C27.3638 22.3816 27.3022 22.8577 28.0688 22.7374C30.3313 22.3823 31.0807 23.0031 31.0807 25.2326V26.2834H33.3661H35.6515L35.7982 26.5543C36.1661 27.2341 36.1856 28.3201 35.8405 28.9151C35.5563 29.4053 35.4688 29.423 33.1914 29.4526L31.0807 29.4799L31.0811 30.6916C31.0816 32.3806 31.512 32.8129 32.8774 32.4961C33.6126 32.3255 33.642 32.336 33.8699 32.8498C35.0683 35.5517 30.3863 37.1199 28.309 34.7123C27.4414 33.7069 27.4359 33.6655 27.3991 27.9143Z" fill="#007BFF"/>
<path d="M9.76312 25.7235C10.1073 24.7982 11.881 23.8111 13.5942 23.5916C14.7765 23.4401 16.1749 23.6864 17.1312 24.2145L17.7144 24.5366L18.1158 24.3134C19.2704 23.6714 19.6165 23.584 21 23.5852C22.5056 23.5866 23.3252 23.8845 24.124 24.7206C25.2426 25.8918 25.2518 25.9443 25.2518 31.1624V35.3927L25.0791 35.4965C24.7081 35.7196 22.7381 35.6494 22.3414 35.3989C21.6622 34.97 21.6733 35.0376 21.6285 31.0624C21.5813 26.8727 21.5611 26.8019 20.4152 26.8212C19.2225 26.8412 19.2583 26.6971 19.2766 31.3971C19.2941 35.8642 19.3698 35.4728 18.466 35.5914C15.7808 35.9436 15.5634 35.5752 15.5634 30.6718C15.5634 27.6362 15.5586 27.5395 15.3989 27.3113C14.9776 26.7096 14.0001 26.6061 13.5469 27.1153L13.2791 27.4162V31.4098V35.4033L13.1019 35.4775C12.0172 35.9319 10.2762 35.6108 9.83488 34.8748L9.65576 34.5762V30.2942C9.65576 26.8793 9.6775 25.9538 9.76312 25.7235Z" fill="#007BFF"/>
</svg>
