<svg width="214" height="195" viewBox="0 0 214 195" fill="none" xmlns="http://www.w3.org/2000/svg">
<g clip-path="url(#clip0_19581_36529)">
<path d="M41.9463 154.537V157.723H65.7896V154.537H41.9463Z" fill="#E0E0E0"/>
<path d="M45.1958 154.664C45.2784 154.664 45.3457 155.332 45.3457 156.156C45.3457 156.98 45.2784 157.648 45.1958 157.648C45.1128 157.648 45.0459 156.98 45.0459 156.156C45.0459 155.332 45.1132 154.664 45.1958 154.664Z" fill="#FAFAFA"/>
<path d="M44.6743 154.594C44.7573 154.594 44.8242 155.262 44.8242 156.086C44.8242 156.91 44.7573 157.579 44.6743 157.579C44.5918 157.579 44.5244 156.91 44.5244 156.086C44.5244 155.262 44.5918 154.594 44.6743 154.594Z" fill="#FAFAFA"/>
<path d="M63.9439 154.664C64.0269 154.664 64.0938 155.332 64.0938 156.156C64.0938 156.98 64.0269 157.648 63.9439 157.648C63.8613 157.648 63.7939 156.98 63.7939 156.156C63.7944 155.332 63.8613 154.664 63.9439 154.664Z" fill="#FAFAFA"/>
<path d="M63.4292 154.594C63.5118 154.594 63.5791 155.262 63.5791 156.086C63.5791 156.91 63.5118 157.579 63.4292 157.579C63.3466 157.579 63.2793 156.91 63.2793 156.086C63.2793 155.262 63.3462 154.594 63.4292 154.594Z" fill="#FAFAFA"/>
<path d="M60.3093 156.24C60.3093 156.323 57.5782 156.39 54.2105 156.39C50.8416 156.39 48.1113 156.322 48.1113 156.24C48.1113 156.157 50.8416 156.09 54.2105 156.09C57.5782 156.09 60.3093 156.157 60.3093 156.24Z" fill="#FAFAFA"/>
<path d="M41.8447 168.899V175.27H65.688V168.899H41.8447Z" fill="#E0E0E0"/>
<path d="M65.9916 173.463C65.9938 173.467 65.9501 173.492 65.8621 173.537C65.7748 173.582 65.6418 173.643 65.4648 173.718C65.1103 173.863 64.5755 174.069 63.8483 174.181C63.1335 174.282 62.1742 174.311 61.2252 173.808C60.7593 173.559 60.3164 173.181 59.9793 172.679C59.6498 172.179 59.438 171.525 59.5456 170.844C59.6028 170.506 59.7442 170.172 59.9839 169.896C60.2168 169.619 60.5908 169.416 60.9893 169.439C61.3887 169.457 61.7495 169.686 61.9998 169.984C62.2522 170.283 62.4254 170.666 62.461 171.071C62.5554 171.879 62.2153 172.716 61.6389 173.329C61.0719 173.963 60.224 174.35 59.3478 174.449C58.4657 174.553 57.5535 174.414 56.6879 174.119C55.8227 173.82 54.9676 173.335 54.3641 172.557C54.0681 172.17 53.8542 171.69 53.8225 171.181C53.7784 170.674 53.9402 170.128 54.3303 169.75C54.5242 169.562 54.7952 169.435 55.076 169.423C55.3572 169.41 55.6287 169.501 55.8557 169.643C56.3156 169.928 56.6095 170.417 56.7332 170.928C56.9572 171.97 56.5451 173.055 55.793 173.734C55.0388 174.42 54.0512 174.725 53.1085 174.827C52.1594 174.922 51.2048 174.851 50.3257 174.553C49.4499 174.261 48.6622 173.685 48.2086 172.907C47.7474 172.147 47.5962 171.184 47.9435 170.376C48.1066 169.976 48.475 169.621 48.9163 169.553C49.3461 169.473 49.7857 169.592 50.1173 169.843C50.7902 170.377 50.9025 171.293 50.6852 171.989C50.4646 172.706 49.9826 173.255 49.4833 173.682C48.464 174.542 47.2574 174.915 46.2135 174.952C45.1586 174.989 44.2718 174.698 43.623 174.363C42.9695 174.023 42.5393 173.637 42.272 173.362C42.1408 173.222 42.0446 173.111 41.9866 173.031C41.9269 172.953 41.8985 172.911 41.9028 172.908C41.9332 172.866 42.38 173.603 43.6755 174.259C44.3184 174.571 45.187 174.836 46.2063 174.784C47.2159 174.733 48.3767 174.357 49.3457 173.521C49.8221 173.106 50.2702 172.576 50.4637 171.923C50.6585 171.292 50.5319 170.474 49.9678 170.041C49.6921 169.833 49.3131 169.735 48.9654 169.804C48.6118 169.863 48.3314 170.132 48.1857 170.481C47.8851 171.189 48.0168 172.065 48.4462 172.764C48.8676 173.479 49.5901 174.006 50.4193 174.281C51.2476 174.56 52.1692 174.628 53.0775 174.534C53.98 174.435 54.9058 174.141 55.5927 173.513C56.2707 172.905 56.6409 171.907 56.4414 170.995C56.3334 170.549 56.0776 170.131 55.6977 169.896C55.3255 169.65 54.8389 169.657 54.5352 169.967C54.2273 170.264 54.0783 170.726 54.1189 171.161C54.146 171.603 54.3303 172.026 54.5992 172.379C55.1459 173.09 55.9573 173.562 56.781 173.847C57.614 174.134 58.4864 174.269 59.3161 174.174C60.144 174.082 60.9186 173.732 61.4475 173.148C61.9849 172.584 62.2954 171.819 62.2153 171.097C62.1573 170.396 61.6229 169.713 60.9787 169.67C60.6611 169.649 60.357 169.805 60.1512 170.043C59.9416 170.279 59.809 170.579 59.7561 170.88C59.6523 171.495 59.8366 172.101 60.1406 172.575C60.451 173.051 60.8678 173.418 61.3074 173.662C62.1971 174.153 63.1322 174.149 63.8339 174.065C64.5492 173.973 65.0858 173.788 65.4445 173.662C65.8019 173.531 65.9866 173.451 65.9916 173.463Z" fill="#FAFAFA"/>
<path d="M43.9736 157.807V168.859H65.6875V157.807H43.9736Z" fill="#EBEBEB"/>
<path d="M47.5816 158.195C47.6646 158.195 47.7315 160.591 47.7315 163.544C47.7315 166.5 47.6646 168.895 47.5816 168.895C47.4986 168.895 47.4316 166.5 47.4316 163.544C47.4316 160.591 47.4986 158.195 47.5816 158.195Z" fill="#E0E0E0"/>
<path d="M49.2251 158.059C49.3081 158.059 49.375 160.423 49.375 163.339C49.375 166.256 49.3077 168.62 49.2251 168.62C49.1425 168.62 49.0752 166.256 49.0752 163.339C49.0752 160.423 49.1425 158.059 49.2251 158.059Z" fill="#E0E0E0"/>
<path d="M63.23 157.703C63.313 157.703 63.3799 160.193 63.3799 163.264C63.3799 166.337 63.313 168.826 63.23 168.826C63.1474 168.826 63.0801 166.336 63.0801 163.264C63.0801 160.193 63.1474 157.703 63.23 157.703Z" fill="#E0E0E0"/>
<path d="M61.2993 157.863C61.3819 157.863 61.4493 160.289 61.4493 163.281C61.4493 166.274 61.3819 168.699 61.2993 168.699C61.2168 168.699 61.1494 166.274 61.1494 163.281C61.1494 160.289 61.2163 157.863 61.2993 157.863Z" fill="#E0E0E0"/>
<path d="M178.178 133.706C180.429 132.544 183.079 132.393 185.578 132.806C186.921 133.028 188.321 133.43 189.234 134.438C190.148 135.447 190.321 137.222 189.272 138.088C188.647 138.604 187.776 138.682 186.967 138.673C185.011 138.65 182.84 138.306 181.277 139.483C180.385 140.154 179.792 141.271 178.725 141.601C177.682 141.924 176.506 141.309 175.952 140.367C175.399 139.426 175.381 138.249 175.639 137.188C175.639 137.188 175.911 134.875 178.178 133.706Z" fill="#EBEBEB"/>
<path d="M173.019 123.741C174.396 125.707 177.071 125.056 178.311 123.856C179.552 122.656 180.076 120.917 180.553 119.259C181.644 115.469 182.743 111.494 181.932 107.635C181.69 106.482 181.258 105.331 180.448 104.475C179.637 103.619 178.39 103.11 177.251 103.411C175.902 103.768 175.063 105.089 174.458 106.346C172.677 110.04 171.734 114.135 171.72 118.236C171.713 120.151 171.939 122.16 173.019 123.741Z" fill="#EBEBEB"/>
<path d="M169.238 126.56C170.733 124.786 171.016 122.199 170.351 119.977C169.686 117.755 168.184 115.865 166.452 114.322C164.422 112.513 162.036 111.105 159.471 110.203C158.461 109.848 157.396 109.568 156.331 109.67C155.265 109.771 154.193 110.316 153.696 111.264C152.961 112.665 153.665 114.364 154.428 115.751C155.77 118.195 157.305 120.531 159.013 122.734C160.388 124.506 161.962 126.254 164.057 127.054C166.151 127.855 168.327 127.761 169.438 126.308" fill="#EBEBEB"/>
<path d="M172.925 153.394C172.95 153.395 172.992 153.077 173.049 152.5C173.112 151.85 173.192 151.034 173.286 150.063C173.4 149.037 173.55 147.816 173.835 146.487C174.119 145.161 174.564 143.724 175.134 142.266C175.726 140.817 176.447 139.501 177.29 138.448C178.126 137.39 179.099 136.624 180.014 136.183C180.926 135.732 181.743 135.55 182.308 135.468C182.878 135.41 183.198 135.365 183.198 135.34C183.198 135.314 182.878 135.31 182.293 135.326C181.713 135.364 180.861 135.511 179.9 135.948C178.936 136.376 177.904 137.153 177.026 138.233C176.141 139.308 175.394 140.654 174.792 142.129C174.211 143.612 173.773 145.063 173.502 146.418C173.231 147.771 173.108 149.005 173.027 150.039C172.949 151.074 172.92 151.913 172.906 152.492C172.893 153.071 172.9 153.392 172.925 153.394Z" fill="#E0E0E0"/>
<path d="M173.092 151.515C173.105 151.515 173.113 151.372 173.117 151.101C173.116 150.789 173.115 150.397 173.114 149.915C173.111 148.887 173.112 147.398 173.167 145.56C173.258 141.884 173.574 137.927 174.185 132.349C174.764 127.104 175.542 120.999 176.362 117.031C176.538 116.128 176.715 115.316 176.881 114.605C177.04 113.892 177.176 113.277 177.307 112.78C177.42 112.312 177.511 111.93 177.584 111.628C177.643 111.363 177.669 111.222 177.656 111.219C177.644 111.215 177.595 111.349 177.512 111.608C177.422 111.906 177.308 112.282 177.168 112.743C177.016 113.236 176.859 113.847 176.681 114.557C176.494 115.265 176.299 116.075 176.106 116.977C175.295 120.573 174.436 125.599 173.819 131.19C173.206 136.78 172.93 141.87 172.906 145.555C172.884 147.398 172.923 148.89 172.97 149.919C172.999 150.401 173.023 150.793 173.042 151.104C173.063 151.374 173.08 151.516 173.092 151.515Z" fill="#E0E0E0"/>
<path d="M173.116 141.705C173.142 141.704 173.137 141.264 173.108 140.467C173.062 139.671 172.953 138.521 172.729 137.112C172.491 135.707 172.159 134.038 171.638 132.225C171.412 131.396 170.881 129.409 169.594 126.441C167.899 122.42 165.596 119.132 163.592 117.096C163.122 116.555 162.599 116.165 162.18 115.783C161.963 115.6 161.772 115.417 161.577 115.273C161.381 115.138 161.198 115.012 161.029 114.895C160.37 114.444 160.001 114.207 159.987 114.228C159.928 114.308 161.464 115.212 163.404 117.276C165.336 119.336 167.574 122.601 169.256 126.588C170.194 128.751 170.848 130.681 171.312 132.318C171.848 134.114 172.204 135.766 172.473 137.157C172.728 138.552 172.876 139.69 172.965 140.479C173.038 141.269 173.091 141.706 173.116 141.705Z" fill="#E0E0E0"/>
<path d="M162.976 157.531L163.959 171.007H181.271L182.255 157.531H162.976Z" fill="#EBEBEB"/>
<path d="M184.317 152.211H161.3V157.522H184.317V152.211Z" fill="#EBEBEB"/>
<path d="M161.3 170.48V171.953H162.381H183.937V170.48H161.3Z" fill="#E0E0E0"/>
<path d="M163.44 174.38L162.38 171.789H183.111L181.874 174.38H163.44Z" fill="#E0E0E0"/>
<path d="M181.93 161.933C181.934 161.936 181.907 161.978 181.849 162.057C181.781 162.148 181.696 162.261 181.591 162.4C181.345 162.714 181.007 163.147 180.582 163.69L180.537 163.748L180.494 163.688C179.86 162.811 179.013 161.64 178.016 160.261H178.159C177.422 161.304 176.601 162.467 175.719 163.715L175.643 163.823L175.557 163.721C174.657 162.65 173.679 161.487 172.664 160.279L172.831 160.277C172.781 160.34 172.726 160.408 172.672 160.477C171.774 161.602 170.906 162.691 170.085 163.72L169.999 163.828L169.919 163.715C169.041 162.473 168.22 161.312 167.478 160.262L167.62 160.269C166.418 161.639 165.397 162.802 164.614 163.693L164.561 163.754L164.52 163.686C164.124 163.02 163.808 162.489 163.579 162.104C163.481 161.933 163.401 161.794 163.338 161.683C163.285 161.587 163.26 161.536 163.264 161.533C163.269 161.53 163.303 161.576 163.365 161.667C163.435 161.773 163.523 161.907 163.632 162.072C163.873 162.45 164.204 162.971 164.62 163.624L164.526 163.617C165.297 162.714 166.3 161.537 167.484 160.15L167.558 160.063L167.626 160.157C168.374 161.202 169.202 162.358 170.088 163.595L169.923 163.59C170.742 162.559 171.608 161.469 172.504 160.342C172.558 160.274 172.612 160.205 172.663 160.142L172.745 160.039L172.83 160.14C173.842 161.35 174.817 162.516 175.715 163.589L175.553 163.596C176.443 162.354 177.272 161.197 178.016 160.159L178.089 160.058L178.159 160.159C179.135 161.553 179.964 162.737 180.584 163.623L180.496 163.621C180.938 163.091 181.289 162.669 181.545 162.363C181.659 162.231 181.752 162.124 181.826 162.038C181.891 161.966 181.926 161.93 181.93 161.933Z" fill="#F5F5F5"/>
<path d="M182.495 157.436C182.495 157.495 178.157 157.543 172.808 157.543C167.456 157.543 163.119 157.495 163.119 157.436C163.119 157.376 167.456 157.328 172.808 157.328C178.157 157.328 182.495 157.376 182.495 157.436Z" fill="#F5F5F5"/>
<path d="M83.7965 17.0509C83.7948 17.0548 83.7613 17.0442 83.6978 17.0205C83.6216 16.9904 83.5297 16.9544 83.4174 16.9103C83.1545 16.8011 82.7979 16.6524 82.3485 16.4657C81.4046 16.0612 80.0723 15.4912 78.4346 14.7899C75.1216 13.3466 70.5775 11.3668 65.5573 9.17985C65.4045 9.11294 65.252 9.04602 65.111 8.98419L65.2037 8.98462C60.2683 11.0953 55.822 12.9964 52.5861 14.38C50.9874 15.0516 49.6885 15.5975 48.7683 15.9842C48.3308 16.1629 47.9835 16.3043 47.7273 16.4089C47.4885 16.5038 47.3614 16.55 47.3585 16.5423C47.3555 16.5351 47.4762 16.4746 47.7091 16.3662C47.9615 16.2518 48.3024 16.0968 48.7331 15.9016C49.6466 15.4988 50.9353 14.9301 52.5221 14.23C55.7509 12.83 60.1874 10.906 65.1123 8.77033L65.1588 8.75L65.2054 8.77033C65.3464 8.83216 65.4989 8.89907 65.6518 8.96598C70.6613 11.1771 75.1961 13.1789 78.5019 14.6383C80.1273 15.368 81.449 15.9613 82.3862 16.3822C82.8284 16.5864 83.179 16.7477 83.4378 16.8671C83.5462 16.9197 83.6351 16.9629 83.7088 16.9989C83.7681 17.0298 83.7982 17.0476 83.7965 17.0509Z" fill="#E0E0E0"/>
<path d="M103.884 15.2031H21.1777V77.1297H103.884V15.2031Z" fill="#E0E0E0"/>
<path d="M101.304 18.0859H24.0693V74.5884H101.304V18.0859Z" fill="#F3F5F9"/>
<path d="M41.1289 42.7734C41.1289 42.7734 41.2094 52.2585 41.6917 55.1522L53.5882 54.5894C53.5882 54.5894 52.5434 45.2653 52.9453 42.7734H41.1289Z" fill="#E0E0E0"/>
<path d="M46.9866 44.1182C46.9866 44.1169 47.0014 44.1153 47.0302 44.1136C47.0636 44.1123 47.106 44.1106 47.1585 44.1085C47.2716 44.1004 47.4388 44.1085 47.6536 44.133C47.8666 44.1669 48.1287 44.2245 48.4099 44.3579C48.6903 44.4909 48.9804 44.7077 49.2332 45.0093C49.4767 45.3159 49.6999 45.6966 49.8037 46.1548C49.9015 46.6135 49.8519 47.1284 49.6787 47.6248C49.5944 47.8742 49.4797 48.1194 49.3446 48.3595C49.2103 48.5992 49.0757 48.8402 48.9634 49.1015C48.739 49.6207 48.5607 50.192 48.4823 50.7896L48.4773 50.8289L48.4387 50.8298C48.0631 50.8357 47.6663 50.8421 47.2639 50.8488C46.8417 50.8556 46.4258 50.862 46.032 50.8679L45.9884 50.8687L45.9867 50.8243C45.9664 50.2259 45.6974 49.6808 45.4154 49.1985C45.2727 48.9545 45.1164 48.7263 44.9699 48.4951C44.8267 48.2681 44.6658 48.0508 44.5519 47.8136C44.3173 47.3402 44.277 46.8163 44.3655 46.3649C44.4507 45.9126 44.6006 45.5022 44.8246 45.1795C45.0474 44.8564 45.3311 44.6315 45.5988 44.4824C45.8681 44.3325 46.1214 44.2512 46.3293 44.1999C46.5381 44.1496 46.7032 44.1297 46.815 44.1208C46.8709 44.1178 46.9137 44.1153 46.9425 44.1161C46.9717 44.1153 46.9866 44.1169 46.9866 44.1182C46.9866 44.1199 46.9717 44.1208 46.9434 44.1237C46.9103 44.1271 46.8688 44.1313 46.8172 44.1369C46.7066 44.1508 46.5432 44.1758 46.3378 44.2309C46.1332 44.2863 45.8846 44.371 45.6225 44.5227C45.3616 44.673 45.0876 44.8962 44.8742 45.213C44.6603 45.5276 44.5159 45.9329 44.4358 46.3763C44.3528 46.8189 44.3952 47.322 44.6239 47.7785C44.7352 48.0085 44.8928 48.2194 45.0406 48.451C45.1858 48.6784 45.3447 48.9092 45.4895 49.1544C45.7754 49.6419 46.0536 50.1945 46.0765 50.8226L46.0311 50.779C46.4254 50.7726 46.8413 50.7658 47.2631 50.7591C47.6654 50.7527 48.0622 50.7468 48.4379 50.7408L48.3943 50.7811C48.4756 50.167 48.6564 49.594 48.8855 49.0672C48.999 48.8038 49.1388 48.556 49.2726 48.3189C49.4064 48.083 49.5203 47.8424 49.6038 47.5989C49.7757 47.1136 49.8261 46.6139 49.7346 46.1696C49.6385 45.7275 49.4217 45.3481 49.187 45.0474C48.9431 44.7501 48.6623 44.5349 48.3896 44.4007C48.116 44.2656 47.859 44.2042 47.6489 44.1656C47.4372 44.1364 47.2711 44.1233 47.1585 44.1258C47.106 44.1246 47.0641 44.1233 47.0306 44.1225C47.0014 44.1208 46.9866 44.1195 46.9866 44.1182Z" fill="white"/>
<path d="M47.5965 50.721C47.5965 50.721 47.5935 50.7083 47.5893 50.6838C47.5851 50.6575 47.5791 50.6207 47.5711 50.5737C47.5559 50.475 47.5343 50.3323 47.5063 50.1489C47.4529 49.7796 47.3738 49.2452 47.3204 48.5798C47.3077 48.4134 47.2962 48.2389 47.2895 48.0568C47.2835 47.8747 47.2755 47.685 47.2861 47.4881C47.2971 47.292 47.3293 47.0853 47.4199 46.8931C47.511 46.7038 47.6626 46.5255 47.8735 46.4386C48.0827 46.3484 48.3491 46.3955 48.521 46.5619C48.6057 46.6453 48.6624 46.7643 48.6599 46.8876C48.6595 47.0104 48.6121 47.1302 48.5384 47.2285C48.4651 47.3284 48.363 47.4051 48.2521 47.4597C48.1407 47.5156 48.0204 47.5503 47.8985 47.577C47.6545 47.6283 47.403 47.6566 47.1476 47.6642C46.8922 47.6702 46.6394 47.6655 46.3921 47.6278C46.2688 47.6075 46.1473 47.5757 46.0342 47.5245C45.9207 47.4737 45.8178 47.4013 45.7344 47.3115C45.6514 47.2217 45.5879 47.1124 45.5616 46.9934C45.5341 46.8744 45.5523 46.7482 45.604 46.6411C45.6552 46.5344 45.742 46.4425 45.8526 46.3988C45.9631 46.354 46.0884 46.3667 46.1909 46.4145C46.2947 46.4624 46.3802 46.5394 46.4433 46.6292C46.5069 46.7203 46.5445 46.8232 46.5695 46.9257C46.6182 47.1323 46.617 47.3373 46.6297 47.5325C46.65 47.9243 46.6691 48.2889 46.6864 48.6222C46.7199 49.2871 46.747 49.8258 46.766 50.1997C46.7745 50.3848 46.7813 50.5292 46.7859 50.6287C46.7876 50.6766 46.7889 50.7138 46.7902 50.7405C46.791 50.7655 46.7906 50.7786 46.7906 50.7786C46.7906 50.7786 46.7885 50.7659 46.7868 50.7409C46.7847 50.7143 46.7821 50.6774 46.7787 50.6296C46.7724 50.53 46.7635 50.3856 46.7521 50.201C46.7305 49.827 46.6991 49.2888 46.6606 48.6239C46.6419 48.2906 46.6212 47.926 46.5992 47.5347C46.586 47.3394 46.586 47.1349 46.5382 46.9337C46.5136 46.8342 46.4764 46.7347 46.4162 46.6491C46.3561 46.5636 46.2739 46.4907 46.1769 46.4463C46.0808 46.4018 45.9656 46.3908 45.8653 46.4319C45.7645 46.4717 45.6836 46.5568 45.6357 46.6572C45.5874 46.7575 45.5705 46.8753 45.5963 46.9862C45.6209 47.098 45.681 47.2018 45.7607 47.2878C45.9207 47.4631 46.1566 47.555 46.398 47.5927C46.6411 47.6295 46.8935 47.6342 47.1463 47.6287C47.3996 47.621 47.6494 47.5931 47.8904 47.5423C48.0103 47.516 48.128 47.4817 48.2356 47.4284C48.3431 47.3754 48.4397 47.3026 48.5091 47.2081C48.579 47.115 48.6235 47.0023 48.6239 46.8888C48.6264 46.7749 48.5748 46.6665 48.496 46.5886C48.3351 46.4327 48.0835 46.3866 47.8862 46.4717C47.6854 46.5534 47.5376 46.7245 47.4491 46.9083C47.3602 47.0946 47.328 47.2971 47.3166 47.491C47.3056 47.6858 47.3128 47.8751 47.3178 48.0568C47.3238 48.2385 47.3344 48.413 47.3462 48.579C47.3962 49.2435 47.4716 49.7783 47.5203 50.1481C47.5453 50.3318 47.5647 50.4746 47.5783 50.5737C47.5847 50.6211 47.5893 50.6579 47.5927 50.6846C47.5957 50.7079 47.5965 50.721 47.5965 50.721Z" fill="white"/>
<path d="M46.0295 50.788C46.0355 50.7935 46.0452 50.9358 46.0604 51.1836C46.0753 51.4707 46.0931 51.8137 46.1134 52.2143L46.1036 52.1894C46.3429 52.4651 46.6127 52.7763 46.9045 53.1122L46.8634 53.0944C47.1548 53.0779 47.466 53.0605 47.7892 53.0423L47.7502 53.0618C47.8988 52.8801 48.0534 52.6916 48.2114 52.4989C48.2893 52.4041 48.3668 52.3101 48.4426 52.2173L48.4303 52.2533C48.4181 51.7104 48.4062 51.1967 48.3952 50.7283L48.4456 50.7761C47.7709 50.7838 47.1861 50.7901 46.716 50.7952C46.5284 50.7952 46.3637 50.7948 46.2163 50.7948C46.0981 50.7935 46.0333 50.7918 46.0295 50.788C46.0257 50.7842 46.0833 50.7791 46.1943 50.7723C46.3383 50.7647 46.4992 50.7563 46.6821 50.7469C47.1607 50.7283 47.7561 50.7046 48.4426 50.6779L48.4917 50.6758L48.4934 50.7258C48.5074 51.1941 48.5231 51.7078 48.5392 52.2503L48.54 52.2707L48.5269 52.2868C48.4511 52.3795 48.374 52.4735 48.2961 52.5684C48.1377 52.7607 47.9827 52.9491 47.8336 53.1304L47.8184 53.149L47.7947 53.1503C47.4715 53.1659 47.1603 53.1812 46.8685 53.1956L46.8431 53.1969L46.827 53.1778C46.5407 52.8369 46.276 52.5214 46.0414 52.2419L46.0316 52.2304V52.2165C46.0278 51.8061 46.0244 51.4537 46.0215 51.1594C46.0219 50.9138 46.0236 50.7825 46.0295 50.788Z" fill="white"/>
<path d="M48.421 52.1299C48.4197 52.1325 48.3888 52.1181 48.3333 52.0927C48.2778 52.0673 48.1961 52.033 48.0932 51.9974C47.8878 51.9262 47.5897 51.8597 47.2572 51.8699C46.9248 51.8797 46.6309 51.9644 46.4301 52.0482C46.3293 52.0897 46.2501 52.1291 46.1959 52.1579C46.1417 52.1863 46.1121 52.2028 46.1104 52.2002C46.1091 52.1981 46.1366 52.1778 46.1887 52.1452C46.2408 52.1126 46.3192 52.0694 46.4195 52.0241C46.6199 51.9334 46.9176 51.8432 47.2555 51.8331C47.5935 51.8225 47.8963 51.8945 48.1017 51.9728C48.2046 52.0118 48.2855 52.0503 48.3397 52.0795C48.3939 52.1092 48.4223 52.1278 48.421 52.1299Z" fill="white"/>
<path d="M48.421 51.7588C48.4197 51.7614 48.3888 51.747 48.3333 51.7216C48.2778 51.6962 48.1961 51.6619 48.0932 51.6263C47.8878 51.5551 47.5897 51.4887 47.2568 51.4988C46.9244 51.509 46.6304 51.5933 46.4297 51.6771C46.3289 51.7186 46.2497 51.758 46.1959 51.7868C46.1417 51.8152 46.1121 51.8317 46.1104 51.8291C46.1091 51.827 46.1362 51.8067 46.1887 51.7741C46.2408 51.7415 46.3192 51.6983 46.4195 51.653C46.6199 51.5623 46.9176 51.4721 47.2555 51.462C47.5935 51.4514 47.8963 51.5234 48.1017 51.6017C48.205 51.6407 48.2855 51.6792 48.3397 51.7085C48.3935 51.7381 48.4218 51.7567 48.421 51.7588Z" fill="white"/>
<path d="M48.3985 51.4116C48.3973 51.4142 48.3663 51.3998 48.3109 51.3743C48.255 51.3489 48.1737 51.3146 48.0707 51.2791C47.8653 51.2079 47.5672 51.1414 47.2348 51.1516C46.9023 51.1618 46.6084 51.246 46.4077 51.3295C46.3069 51.371 46.2277 51.4103 46.1735 51.4391C46.1193 51.4675 46.0896 51.484 46.0879 51.4815C46.0867 51.4794 46.1142 51.459 46.1663 51.4264C46.2184 51.3938 46.2967 51.3506 46.3971 51.3053C46.5974 51.2147 46.8951 51.1245 47.2331 51.1143C47.5714 51.1037 47.8738 51.1757 48.0792 51.2541C48.1825 51.293 48.263 51.3316 48.3172 51.3608C48.371 51.3909 48.3994 51.4099 48.3985 51.4116Z" fill="white"/>
<path d="M27.8789 27.2695C27.8789 27.2695 27.9594 36.7546 28.4417 39.6483L40.3382 39.0855C40.3382 39.0855 39.293 29.7614 39.6949 27.2695H27.8789Z" fill="#EBEBEB"/>
<path d="M37.9019 31.2534C37.9057 31.3178 36.1215 31.4774 33.9176 31.61C31.7129 31.7425 29.9228 31.798 29.919 31.7336C29.9151 31.6693 31.6989 31.5096 33.9036 31.377C36.1075 31.2445 37.8976 31.189 37.9019 31.2534Z" fill="white"/>
<path d="M37.9048 33.2651C37.9086 33.3295 36.1244 33.4891 33.9205 33.6217C31.7154 33.7542 29.9257 33.8097 29.9219 33.7453C29.9181 33.681 31.7018 33.5213 33.9066 33.3888C36.1104 33.2562 37.901 33.2007 37.9048 33.2651Z" fill="white"/>
<path d="M35.8814 35.2383C35.8852 35.3027 34.8701 35.4162 33.6144 35.4915C32.3583 35.5669 31.3368 35.5762 31.333 35.5119C31.3292 35.4475 32.3439 35.3344 33.6004 35.2586C34.8561 35.1828 35.8776 35.1739 35.8814 35.2383Z" fill="white"/>
<path d="M27.3184 55.1762C27.3184 55.1762 27.3988 64.6612 27.8812 67.555L39.7776 66.9922C39.7776 66.9922 38.7324 57.6676 39.1347 55.1758H27.3184V55.1762Z" fill="#EBEBEB"/>
<path d="M37.3413 59.1595C37.3451 59.2238 35.5609 59.3835 33.3571 59.516C31.1523 59.6486 29.3622 59.7041 29.3584 59.6397C29.3546 59.5753 31.1384 59.4157 33.3431 59.2831C35.547 59.1506 37.3375 59.0955 37.3413 59.1595Z" fill="white"/>
<path d="M37.3442 61.1712C37.348 61.2355 35.5639 61.3952 33.36 61.5278C31.1553 61.6603 29.3651 61.7158 29.3613 61.6514C29.3575 61.587 31.1413 61.4274 33.346 61.2948C35.5503 61.1623 37.3404 61.1072 37.3442 61.1712Z" fill="white"/>
<path d="M35.3208 63.1405C35.3246 63.2049 34.3095 63.3184 33.0538 63.3937C31.7978 63.4691 30.7763 63.4784 30.7725 63.4141C30.7687 63.3497 31.7834 63.2366 33.0399 63.1608C34.296 63.0854 35.317 63.0761 35.3208 63.1405Z" fill="white"/>
<path d="M59.8252 29.7852L61.0038 57.1426L95.1558 57.5546L93.6227 30.1464L59.8252 29.7852Z" fill="#EBEBEB"/>
<path d="M93.3566 29.582H59.4316V55.1989H93.3566V29.582Z" fill="#F5F5F5"/>
<path d="M93.3575 55.1943C93.3575 55.1943 93.3507 55.0291 93.3469 54.7191C93.3443 54.4023 93.3409 53.9458 93.3358 53.352C93.3299 52.151 93.3219 50.4011 93.3113 48.1685C93.2994 43.7018 93.2821 37.31 93.2613 29.5774L93.357 29.6731C83.7665 29.679 72.0598 29.6862 59.435 29.6939H59.432L59.5485 29.5774C59.5442 38.7906 59.5404 47.5137 59.5371 55.1938L59.432 55.0888C69.4697 55.1104 77.9371 55.1286 83.9029 55.1413C86.8864 55.1532 89.2428 55.1629 90.8626 55.1693C91.666 55.1748 92.2852 55.179 92.7125 55.182C92.9183 55.1845 93.0762 55.1866 93.191 55.1879C93.2994 55.19 93.3575 55.1943 93.3575 55.1943C93.3575 55.1943 93.3075 55.1985 93.2033 55.2002C93.0915 55.2015 92.9369 55.2036 92.7366 55.2061C92.314 55.2091 91.702 55.2133 90.9075 55.2188C89.2932 55.2256 86.9449 55.2349 83.9719 55.2468C77.9896 55.2595 69.4985 55.2777 59.4329 55.2993L59.3278 55.2997V55.1943C59.3245 47.5137 59.3206 38.7906 59.3164 29.5778V29.4609H59.4333H59.4363C72.0611 29.4686 83.7678 29.4758 93.3583 29.4817H93.4544L93.454 29.5774C93.4333 37.335 93.4163 43.7476 93.404 48.2286C93.3935 50.4519 93.385 52.1946 93.3795 53.3906C93.3748 53.9763 93.371 54.4269 93.3685 54.7394C93.3646 55.0431 93.3575 55.1943 93.3575 55.1943Z" fill="#E0E0E0"/>
<path d="M77.2776 35.0195H63.5254V52.3274H77.2776V35.0195Z" fill="#F5F5F5"/>
<path d="M77.2783 52.3325C77.2762 52.3303 77.2741 52.3011 77.2724 52.2452C77.2707 52.1796 77.269 52.0995 77.2665 51.9992C77.2635 51.7713 77.2593 51.4558 77.2542 51.0527C77.2474 50.2163 77.2381 49.0165 77.2262 47.5016C77.2135 44.455 77.1953 40.1438 77.1741 35.025L77.2787 35.1296C73.1806 35.133 68.4904 35.1373 63.5278 35.1419C63.5003 35.1665 63.7472 34.923 63.643 35.0284V35.0331V35.0424V35.061V35.0987V35.1737V35.3236V35.623V36.2197C63.643 36.6165 63.643 37.0116 63.6426 37.4046C63.6422 38.1907 63.6417 38.9686 63.6417 39.7368C63.6405 41.2737 63.6392 42.7737 63.6379 44.228C63.6329 47.1349 63.6278 49.8593 63.6231 52.3325L63.5261 52.2355C67.6523 52.2562 71.0758 52.2736 73.4834 52.2855C74.6776 52.296 75.6191 52.3045 76.2772 52.3104C76.5914 52.3151 76.837 52.3189 77.0179 52.3215C77.186 52.3253 77.2783 52.3325 77.2783 52.3325C77.2817 52.3359 77.2004 52.3397 77.0382 52.3431C76.862 52.3456 76.6223 52.3494 76.3161 52.3541C75.6631 52.36 74.7293 52.3685 73.5444 52.3791C71.122 52.3913 67.6777 52.4087 63.5266 52.429L63.43 52.4294V52.332C63.4253 49.8588 63.4207 47.1345 63.4156 44.2276C63.4143 42.7733 63.4131 41.2737 63.4118 39.7364C63.4114 38.9678 63.4109 38.1902 63.4109 37.4042C63.4109 37.0112 63.4109 36.6161 63.4105 36.2193V35.6226V35.3232V35.1733V35.0983V35.0606V35.042V35.0327V35.028C63.3068 35.1309 63.5515 34.8823 63.5287 34.9081C68.4912 34.9124 73.1814 34.9166 77.2796 34.9204H77.3846L77.3842 35.025C77.3626 40.1722 77.3448 44.5063 77.3321 47.5694C77.3203 49.0741 77.3109 50.2658 77.3046 51.0967C77.2995 51.4914 77.2953 51.7997 77.2923 52.0225C77.2898 52.1182 77.2881 52.1948 77.2864 52.2571C77.2826 52.3092 77.2804 52.3346 77.2783 52.3325Z" fill="#E0E0E0"/>
<path d="M90.4066 31.0547H64.0508V33.5487H90.4066V31.0547Z" fill="#F5F5F5"/>
<path d="M90.4059 33.5523C90.4029 33.5493 90.4 33.4913 90.3966 33.3816C90.3936 33.26 90.3902 33.1004 90.3856 32.898C90.3792 32.4647 90.3703 31.849 90.3589 31.0587L90.4059 31.1057C85.9613 31.1468 75.83 31.1752 64.0517 31.1752H64.0505C64.2834 30.9423 64.1148 31.1108 64.1669 31.0591V31.06V31.0625V31.0676V31.0778V31.0977V31.1375V31.2175V31.3776V31.6965C64.1669 31.9082 64.1669 32.1191 64.1669 32.3279C64.1669 32.7455 64.1665 33.1554 64.1665 33.5527L64.0505 33.4366C71.421 33.4561 77.989 33.4735 82.7322 33.4862C85.0965 33.5006 87.0052 33.5125 88.3392 33.5209C88.991 33.5277 89.5017 33.5332 89.8651 33.537C90.0307 33.5404 90.1628 33.5429 90.2649 33.5451C90.3555 33.5472 90.4034 33.5497 90.4059 33.5523C90.4085 33.5548 90.3661 33.5578 90.2801 33.5603C90.1819 33.5624 90.0548 33.565 89.8952 33.5684C89.5382 33.5722 89.0363 33.5777 88.396 33.5844C87.0683 33.5925 85.169 33.6043 82.816 33.6187C78.0517 33.6315 71.454 33.6488 64.0501 33.6683L63.934 33.6687V33.5523C63.934 33.155 63.934 32.7451 63.9336 32.3275C63.9336 32.1187 63.9336 31.9078 63.9336 31.6961V31.3772V31.2171V31.1371V31.0973V31.0773V31.0672V31.0621V31.0596V31.0587C63.9857 31.0066 63.8171 31.1748 64.0505 30.9414H64.0517C75.83 30.9414 85.9613 30.9698 90.4059 31.0109L90.4538 31.0113L90.4529 31.0583C90.4415 31.8604 90.4322 32.485 90.4262 32.9251C90.4216 33.1233 90.4178 33.2795 90.4152 33.3981C90.4118 33.5036 90.4089 33.5552 90.4059 33.5523Z" fill="#E0E0E0"/>
<path d="M90.4043 35.0117H78.958V45.4428H90.4043V35.0117Z" fill="#F5F5F5"/>
<path d="M90.4058 45.4553C90.402 45.4515 90.3986 45.3828 90.3948 45.2537C90.3918 45.1093 90.388 44.9221 90.3834 44.6875C90.377 44.1776 90.3685 43.4627 90.3575 42.5611C90.3453 40.7257 90.3275 38.1347 90.3067 35.0241L90.4058 35.1232C87.1 35.1283 83.1691 35.1342 78.9604 35.1406C78.9337 35.1656 79.1802 34.9204 79.076 35.0258V35.0288V35.0343V35.0453V35.0673V35.1118V35.2007V35.3782V35.7322C79.076 35.9677 79.076 36.2027 79.076 36.4361C79.0756 36.9032 79.0756 37.3665 79.0752 37.8251C79.0743 38.742 79.0731 39.6407 79.0722 40.516C79.0684 42.2659 79.065 43.9235 79.0616 45.4544L78.9591 45.3519C82.3539 45.3731 85.1981 45.3909 87.2156 45.4036C88.2087 45.415 88.9968 45.4243 89.558 45.4307C89.818 45.4358 90.0247 45.4396 90.1831 45.4426C90.3262 45.4472 90.402 45.451 90.4058 45.4553C90.4096 45.4591 90.3414 45.4629 90.2059 45.4667C90.0526 45.4697 89.8527 45.4735 89.6007 45.4786C89.0455 45.4849 88.2646 45.4942 87.2813 45.5057C85.2481 45.5184 82.3806 45.5362 78.9591 45.5573L78.8571 45.5582L78.8567 45.4553C78.8533 43.9243 78.8499 42.2668 78.8461 40.5169C78.8452 39.6415 78.8444 38.7429 78.8431 37.826C78.8431 37.3673 78.8427 36.904 78.8422 36.4369C78.8422 36.2031 78.8422 35.9685 78.8422 35.7331V35.379V35.2016V35.1126V35.0682V35.0462V35.0351V35.0296V35.0267C78.7381 35.13 78.9841 34.8827 78.96 34.9081C83.1683 34.9144 87.0992 34.9204 90.4054 34.9255H90.5053L90.5045 35.0246C90.4833 38.161 90.4659 40.7739 90.4537 42.6246C90.4427 43.5165 90.4342 44.2242 90.4278 44.7285C90.4232 44.9551 90.4194 45.136 90.4164 45.2757C90.4134 45.3977 90.4096 45.4587 90.4058 45.4553Z" fill="#E0E0E0"/>
<path d="M90.4062 47.0742H78.96V52.3154H90.4062V47.0742Z" fill="#F5F5F5"/>
<path d="M90.4068 52.3201C90.4009 52.3142 90.3949 52.1834 90.3886 51.9403C90.3835 51.6769 90.3763 51.3266 90.3674 50.8879C90.3564 49.963 90.3407 48.6683 90.3217 47.079L90.4064 47.1637C87.4211 47.1721 83.3937 47.1831 78.961 47.1954C78.8563 47.2996 79.102 47.0536 79.0766 47.0794V47.0807V47.0832V47.0887V47.0993V47.1209V47.1641V47.2505V47.4224V47.7654C79.0766 47.9933 79.0761 48.2203 79.0761 48.4456C79.0757 48.8962 79.0753 49.3417 79.0749 49.78C79.0732 50.6567 79.0719 51.5062 79.0702 52.3193L78.9597 52.2088C82.2608 52.2299 85.1012 52.2486 87.145 52.2617C88.1457 52.2744 88.95 52.285 89.5301 52.2922C89.7944 52.2977 90.0074 52.3024 90.1743 52.3062C90.3234 52.3113 90.4026 52.3155 90.4068 52.3201C90.4114 52.3248 90.3411 52.329 90.2014 52.3337C90.0405 52.3371 89.8351 52.3417 89.5801 52.3477C89.0059 52.3553 88.2101 52.3655 87.22 52.3782C85.158 52.3913 82.2918 52.4095 78.9601 52.4311L78.8496 52.4319V52.3206C78.8483 51.5075 78.8466 50.6579 78.8453 49.7813C78.8449 49.343 78.8445 48.8975 78.8441 48.4469C78.8441 48.2216 78.8436 47.9946 78.8436 47.7667V47.4237V47.2517V47.1654V47.1222V47.1006V47.09V47.0845V47.0819V47.0807C78.8182 47.1052 79.0647 46.8592 78.961 46.9633C83.3937 46.9756 87.4216 46.9871 90.4064 46.9951L90.4919 46.9955L90.4911 47.0802C90.472 48.6908 90.4568 50.0032 90.4457 50.9404C90.4369 51.3711 90.4297 51.715 90.4246 51.9737C90.4186 52.2067 90.4127 52.3261 90.4068 52.3201Z" fill="#E0E0E0"/>
<path d="M76.9356 35.0391C72.6786 40.9197 67.7804 46.4362 63.5234 52.3169L76.9356 35.0391Z" fill="white"/>
<path d="M63.5222 52.3172C63.5158 52.3125 63.5543 52.246 63.6344 52.1241C63.7318 51.9813 63.8504 51.8073 63.9935 51.5968C64.3082 51.1407 64.7787 50.4923 65.3703 49.6983C66.5519 48.1089 68.2429 45.958 70.1367 43.6054C72.031 41.2521 73.7407 39.1198 74.9544 37.5579C75.5435 36.7973 76.0284 36.1714 76.3892 35.7055C76.5468 35.5056 76.6768 35.3405 76.7835 35.2045C76.8758 35.0915 76.9275 35.0343 76.9339 35.0394C76.9402 35.044 76.9013 35.1105 76.8216 35.2325C76.7242 35.3752 76.6056 35.5493 76.4625 35.7593C76.1478 36.215 75.6773 36.8638 75.0857 37.6579C73.9042 39.2472 72.2127 41.3986 70.3184 43.7515C68.425 46.1036 66.7153 48.2359 65.5016 49.7982C64.9125 50.5588 64.4276 51.1847 64.0668 51.6506C63.9092 51.8505 63.7792 52.0156 63.6725 52.1516C63.5802 52.2647 63.5285 52.3218 63.5222 52.3172Z" fill="#E0E0E0"/>
<path d="M77.2757 52.3238C77.2253 52.364 74.1054 48.5217 70.3083 43.7429C66.51 38.9625 63.4727 35.0562 63.5231 35.0159C63.5735 34.9757 66.6925 38.8172 70.4909 43.5977C74.2883 48.3764 77.3261 52.2836 77.2757 52.3238Z" fill="#E0E0E0"/>
<path d="M61.0039 35.0537C61.0039 36.242 60.0404 37.2051 58.8525 37.2051C57.6642 37.2051 56.7012 36.242 56.7012 35.0537C56.7012 33.8654 57.6642 32.9023 58.8525 32.9023C60.0409 32.9023 61.0039 33.8658 61.0039 35.0537Z" fill="#E0E0E0"/>
<path d="M96.1914 29.831C96.1914 31.0194 95.2279 31.9824 94.04 31.9824C92.8517 31.9824 91.8887 31.0194 91.8887 29.831C91.8887 28.6427 92.8521 27.6797 94.04 27.6797C95.2284 27.6797 96.1914 28.6427 96.1914 29.831Z" fill="#E0E0E0"/>
<path d="M192.601 48.5742H167.809V84.5104H192.601V48.5742Z" fill="#E0E0E0"/>
<path d="M191.355 48.5742H166.562V84.5104H191.355V48.5742Z" fill="#F5F5F5"/>
<path d="M188.274 52.4883H169.642V80.6402H188.274V52.4883Z" fill="#F3F5F9"/>
<path d="M188.276 80.6216C188.276 80.6216 188.273 80.5737 188.272 80.484C188.271 80.3912 188.27 80.2582 188.268 80.0846C188.267 79.731 188.264 79.213 188.261 78.5405C188.257 77.1913 188.252 75.225 188.244 72.7416C188.237 67.7774 188.227 60.7478 188.214 52.4697L188.276 52.5315C182.583 52.5332 176.275 52.5349 169.646 52.537H169.644L169.711 52.4697C169.706 63.0897 169.701 72.8818 169.697 80.6216L169.644 80.5678C175.318 80.5797 179.969 80.5894 183.205 80.5962C184.824 80.6021 186.088 80.6068 186.952 80.6097C187.381 80.6123 187.71 80.6144 187.935 80.6157C188.158 80.6178 188.276 80.6216 188.276 80.6216C188.276 80.6216 188.166 80.6254 187.947 80.6275C187.724 80.6288 187.398 80.6309 186.973 80.6334C186.112 80.6364 184.852 80.6411 183.239 80.647C179.994 80.6538 175.331 80.6635 169.644 80.6754H169.59V80.6216C169.586 72.8813 169.581 63.0897 169.576 52.4697V52.4023H169.644H169.646C176.275 52.4045 182.583 52.4062 188.276 52.4078H188.337V52.4697C188.325 60.7643 188.315 67.8079 188.307 72.7822C188.3 75.2601 188.294 77.2213 188.29 78.5676C188.287 79.2346 188.285 79.7483 188.283 80.0994C188.281 80.2701 188.28 80.4001 188.279 80.4916C188.278 80.5788 188.276 80.6216 188.276 80.6216Z" fill="#E0E0E0"/>
<path d="M191.43 48.5747C191.444 48.5861 191.276 48.8317 190.988 49.2167C190.7 49.6016 190.291 50.1255 189.825 50.6921C189.358 51.2588 188.922 51.7602 188.599 52.1168C188.276 52.4734 188.067 52.6855 188.054 52.6733C188.039 52.661 188.223 52.4264 188.527 52.0545C188.859 51.6514 189.268 51.155 189.72 50.6062C190.172 50.0573 190.581 49.561 190.913 49.1574C191.22 48.7877 191.415 48.5628 191.43 48.5747Z" fill="#E0E0E0"/>
<path d="M188.371 80.5586C189.296 82.0302 190.389 83.3964 191.621 84.6229L188.371 80.5586Z" fill="white"/>
<path d="M191.622 84.6236C191.61 84.6359 191.389 84.4441 191.055 84.1083C190.722 83.7724 190.281 83.2896 189.829 82.7255C189.378 82.161 189.004 81.624 188.75 81.2251C188.496 80.8262 188.357 80.5682 188.372 80.5589C188.389 80.5483 188.556 80.788 188.829 81.1717C189.102 81.5554 189.486 82.0801 189.934 82.6413C190.383 83.2015 190.81 83.6915 191.124 84.0426C191.439 84.3941 191.636 84.6097 191.622 84.6236Z" fill="#E0E0E0"/>
<path d="M166.564 84.5028C167.647 83.1671 168.729 81.8318 169.812 80.4961L166.564 84.5028Z" fill="white"/>
<path d="M169.808 80.4926C169.837 80.5159 169.133 81.432 168.237 82.5385C167.34 83.6451 166.589 84.5231 166.56 84.4998C166.532 84.4765 167.235 83.5604 168.132 82.4538C169.029 81.3473 169.779 80.4693 169.808 80.4926Z" fill="#E0E0E0"/>
<path d="M166.562 48.5747C166.592 48.5514 167.298 49.3954 168.139 50.4588C168.98 51.5231 169.638 52.4039 169.609 52.4268C169.58 52.4501 168.874 51.6065 168.033 50.5423C167.191 49.4789 166.533 48.5976 166.562 48.5747Z" fill="#E0E0E0"/>
<path d="M182.47 58.1797H176.231V75.8933H182.47V58.1797Z" fill="#E0E0E0"/>
<path d="M174.639 6.62927L171.09 6.64844L171.185 24.3082L174.734 24.2891L174.639 6.62927Z" fill="#E0E0E0"/>
<path d="M149.533 6.68865L140.343 6.73828L140.395 16.4876L149.586 16.438L149.533 6.68865Z" fill="#EBEBEB"/>
<path d="M158.682 6.63396L149.491 6.68359L149.544 16.4329L158.735 16.3833L158.682 6.63396Z" fill="#F5F5F5"/>
<path d="M140.356 9.41759C146.463 9.46798 152.586 9.43241 158.693 9.33331C158.819 9.33162 158.818 9.13893 158.692 9.13808C152.584 9.1042 146.461 9.13427 140.354 9.2503C140.247 9.25242 140.248 9.41674 140.356 9.41759Z" fill="#E0E0E0"/>
<path d="M151.31 16.2731L134.612 16.3633L134.655 24.3081L151.353 24.2179L151.31 16.2731Z" fill="#EBEBEB"/>
<path d="M167.931 16.1872L151.233 16.2773L151.276 24.2221L167.974 24.132L167.931 16.1872Z" fill="#F5F5F5"/>
<path d="M134.624 18.5698C145.717 18.6955 156.848 18.5829 167.941 18.4054C168.066 18.4033 168.066 18.2106 167.94 18.2102C156.846 18.1518 145.714 18.1581 134.624 18.4025C134.516 18.4046 134.516 18.5685 134.624 18.5698Z" fill="#E0E0E0"/>
<path d="M193.07 24.3008H128.378V27.1471H193.07V24.3008Z" fill="#E0E0E0"/>
<path d="M141.594 25.6797H138.968V35.3921H141.594V25.6797Z" fill="#E0E0E0"/>
<path d="M180.8 25.6797H178.174V35.3921H180.8V25.6797Z" fill="#E0E0E0"/>
<path d="M178.103 0.0316172L174.554 0.0507812L174.685 24.3391L178.234 24.32L178.103 0.0316172Z" fill="#EBEBEB"/>
<path d="M183.648 4.55616L178.133 4.58594L178.239 24.2688L183.754 24.239L183.648 4.55616Z" fill="#F5F5F5"/>
<path d="M183.607 8.36915C183.607 8.42208 182.373 8.46486 180.85 8.46486C179.327 8.46486 178.093 8.42208 178.093 8.36915C178.093 8.31621 179.327 8.27344 180.85 8.27344C182.373 8.27344 183.607 8.31621 183.607 8.36915Z" fill="#E0E0E0"/>
<path d="M183.607 7.53712C183.607 7.59005 182.373 7.63283 180.85 7.63283C179.327 7.63283 178.093 7.59005 178.093 7.53712C178.093 7.48418 179.327 7.44141 180.85 7.44141C182.373 7.44183 183.607 7.4846 183.607 7.53712Z" fill="#E0E0E0"/>
<path d="M183.607 21.2988C183.607 21.3518 182.373 21.3945 180.85 21.3945C179.327 21.3945 178.093 21.3518 178.093 21.2988C178.093 21.2459 179.327 21.2031 180.85 21.2031C182.373 21.2031 183.607 21.2459 183.607 21.2988Z" fill="#E0E0E0"/>
<path d="M183.607 20.4629C183.607 20.5158 182.373 20.5586 180.85 20.5586C179.327 20.5586 178.093 20.5158 178.093 20.4629C178.093 20.41 179.327 20.3672 180.85 20.3672C182.373 20.3676 183.607 20.4104 183.607 20.4629Z" fill="#E0E0E0"/>
<path d="M180.94 18.667C180.888 18.667 180.845 16.6812 180.845 14.2322C180.845 11.7822 180.888 9.79688 180.94 9.79688C180.993 9.79688 181.036 11.7822 181.036 14.2322C181.036 16.6812 180.993 18.667 180.94 18.667Z" fill="#E0E0E0"/>
<path d="M189.671 9.41016H183.668V24.2668H189.671V9.41016Z" fill="#EBEBEB"/>
<path d="M186.838 20.4089C186.049 20.4089 185.497 19.8469 185.497 19.0727C185.497 18.6526 185.659 18.2884 185.983 18.0703L186.119 18.2579C185.851 18.4502 185.724 18.7437 185.724 19.0727C185.724 19.6957 186.17 20.1509 186.838 20.1509C187.507 20.1509 187.952 19.6953 187.952 19.0727C187.952 18.7437 187.825 18.4502 187.557 18.2579L187.694 18.0703C188.013 18.288 188.179 18.6526 188.179 19.0727C188.18 19.8469 187.623 20.4089 186.838 20.4089Z" fill="#FAFAFA"/>
<path d="M187.841 17.7021L187.638 17.5856C187.81 17.3832 187.957 17.0237 187.957 16.634C187.957 16.0772 187.76 15.8548 187.461 15.8548C186.691 15.8548 187.258 17.606 186.221 17.606C185.821 17.606 185.497 17.2718 185.497 16.6036C185.497 16.2694 185.598 15.9052 185.755 15.6977L185.957 15.8142C185.795 16.0365 185.719 16.3253 185.719 16.6086C185.719 17.1249 185.932 17.3531 186.215 17.3531C187.01 17.3531 186.448 15.6016 187.455 15.6016C187.886 15.6016 188.179 15.9709 188.179 16.6442C188.18 17.0796 188.033 17.4946 187.841 17.7021Z" fill="#FAFAFA"/>
<path d="M187.841 15.2802L187.638 15.1638C187.81 14.9613 187.957 14.6018 187.957 14.2117C187.957 13.6553 187.76 13.4325 187.461 13.4325C186.691 13.4325 187.258 15.1837 186.221 15.1837C185.821 15.1837 185.497 14.8495 185.497 14.1817C185.497 13.8471 185.598 13.4829 185.755 13.2754L185.957 13.3919C185.795 13.6146 185.719 13.9034 185.719 14.1868C185.719 14.7026 185.932 14.9308 186.215 14.9308C187.01 14.9308 186.448 13.1797 187.455 13.1797C187.886 13.1797 188.179 13.549 188.179 14.2223C188.18 14.6577 188.033 15.0727 187.841 15.2802Z" fill="#FAFAFA"/>
<path d="M176.272 5.21228C176.836 5.21228 177.292 4.75552 177.292 4.19208C177.292 3.62864 176.836 3.17188 176.272 3.17188C175.709 3.17188 175.252 3.62864 175.252 4.19208C175.252 4.75552 175.709 5.21228 176.272 5.21228Z" fill="#E0E0E0"/>
<path d="M176.589 7.00391H175.958V21.4527H176.589V7.00391Z" fill="#E0E0E0"/>
<path d="M200.51 175.102C200.51 175.163 159.605 175.212 109.158 175.212C58.694 175.212 17.7979 175.163 17.7979 175.102C17.7979 175.041 58.6936 174.992 109.158 174.992C159.605 174.992 200.51 175.041 200.51 175.102Z" fill="#263238"/>
<path d="M137.782 30.0156C144.515 46.4324 142.096 57.1678 137.472 64.3525C135.134 67.9842 132.216 70.7359 129.569 72.8672C128.246 73.9332 126.994 74.8411 125.913 75.6299C124.977 76.3134 124.151 76.919 123.537 77.4561L123.287 77.6826C118.655 82.0248 110.133 86.0825 109.279 97.9766L109.244 98.5488C109.09 101.632 109.532 104.003 110.568 106.109C111.599 108.205 113.199 110 115.288 111.956C119.349 115.759 125.303 120.221 133.063 128.847L133.82 129.694C141.842 138.756 142.743 149.235 141.623 157.489C141.063 161.616 139.998 165.177 139.073 167.705C138.611 168.968 138.184 169.972 137.874 170.659C137.72 171 137.594 171.262 137.508 171.439H65.9131C61.0303 164.05 59.0034 154.821 60.3252 146.064L60.4648 145.21C62.0206 136.4 66.9913 128.239 74.0859 122.794L74.7793 122.275C76.4966 121.024 78.362 119.882 80.2588 118.74C82.1495 117.602 84.0743 116.463 85.8809 115.23C89.3809 112.843 92.5038 110.065 94.1855 106.135L94.3438 105.75C95.9568 101.68 95.5925 97.3591 94.0947 93.3135C92.6914 89.523 90.2857 85.9494 87.5303 82.9951L86.9746 82.4131C84.006 79.3696 80.6448 76.6867 77.4512 73.9453C74.4449 71.3647 71.5707 68.7199 69.2139 65.6221L68.75 64.9961C61.4982 54.9732 61.0144 40.5146 67.5488 30.0156H137.782Z" fill="white" stroke="black"/>
<path d="M67.2713 29.5119C67.2713 29.5119 67.6902 29.5052 68.5139 29.5018C69.3401 29.4997 70.5657 29.4963 72.1725 29.492C75.3936 29.4874 80.141 29.4806 86.2562 29.4717C98.4991 29.4628 116.216 29.4497 138.119 29.4336H138.172L138.191 29.4819C139.178 31.9864 140.174 34.5642 140.88 37.2971C141.607 40.0176 142.203 42.8521 142.414 45.7894C142.635 48.7209 142.54 51.748 141.956 54.7544C141.353 57.7524 140.28 60.7219 138.694 63.4687C137.905 64.8451 136.978 66.152 135.976 67.4131C134.962 68.6667 133.839 69.8453 132.651 70.9701C131.461 72.0936 130.194 73.1519 128.877 74.1645C127.564 75.1805 126.193 76.141 124.855 77.1548C124.184 77.6605 123.572 78.2275 122.933 78.7959C122.291 79.3532 121.63 79.891 120.963 80.4238C119.629 81.4906 118.282 82.5569 117.011 83.7245C114.444 86.0211 112.275 88.8886 111.083 92.2262C110.504 93.8918 110.09 95.637 109.954 97.4233C109.918 97.8693 109.859 98.3148 109.842 98.7629C109.833 99.2114 109.808 99.6611 109.829 100.11C109.835 101.01 109.936 101.909 110.099 102.796C110.439 104.569 111.183 106.267 112.266 107.74C113.332 109.226 114.648 110.534 116.009 111.793C118.749 114.298 121.655 116.689 124.439 119.272C127.237 121.839 129.953 124.55 132.57 127.399C133.869 128.828 135.189 130.266 136.324 131.862C137.498 133.427 138.483 135.137 139.349 136.907C141.056 140.462 142.112 144.363 142.457 148.352C142.829 152.341 142.545 156.405 141.754 160.383C141.363 162.374 140.844 164.346 140.206 166.286C139.568 168.226 138.831 170.138 137.914 171.986L137.885 172.045H137.817C137.231 172.045 136.595 172.045 135.959 172.045C111.321 172.044 87.5492 172.042 65.6434 172.04H65.5871L65.5562 171.994C62.1174 166.831 60.0757 160.901 59.5125 154.957C58.9141 149.013 59.8288 143.052 62.0094 137.761C64.1616 132.452 67.5072 127.794 71.5499 124.134C73.5653 122.289 75.8124 120.78 78.0633 119.383C80.3167 117.985 82.5892 116.691 84.7376 115.275C86.8767 113.856 88.9382 112.345 90.6119 110.496C92.2915 108.663 93.5751 106.509 94.2472 104.195C94.9222 101.878 94.9286 99.4481 94.5339 97.1604C94.1337 94.8646 93.3257 92.6937 92.3033 90.694C91.278 88.6917 90.0347 86.8533 88.6706 85.1758C87.3099 83.4929 85.7972 81.9992 84.2747 80.5894C81.2192 77.7769 78.0929 75.3169 75.2784 72.789C73.869 71.5278 72.5333 70.2548 71.3039 68.9466C70.0833 67.6312 68.9674 66.2824 68.0091 64.8853C66.0762 62.0979 64.7507 59.1609 63.8795 56.326C63.0071 53.4877 62.5735 50.7439 62.474 48.2195C62.4147 47.5893 62.438 46.971 62.4388 46.3675C62.4469 45.764 62.4287 45.1741 62.4913 44.602C62.5354 44.029 62.5786 43.4704 62.6205 42.9262C62.6857 42.3849 62.7751 41.8607 62.8479 41.3499C63.4832 37.2615 64.7168 34.2742 65.6786 32.3621C65.9089 31.8763 66.1118 31.449 66.3316 31.103C66.5378 30.7519 66.7106 30.4572 66.8495 30.2196C67.1282 29.7482 67.2713 29.5119 67.2713 29.5119C67.2417 29.564 67.124 29.772 66.8622 30.2344C66.7259 30.4724 66.5565 30.7676 66.3545 31.1195C66.1397 31.4638 65.939 31.892 65.7116 32.3786C64.7617 34.2936 63.5412 37.2801 62.9182 41.3614C62.8471 41.8713 62.759 42.3943 62.6955 42.9346C62.6552 43.4776 62.6133 44.0349 62.5709 44.6066C62.51 45.1775 62.5294 45.7661 62.5227 46.3679C62.5231 46.9697 62.5011 47.5868 62.5616 48.2148C62.6662 50.7325 63.1037 53.4678 63.9782 56.2955C64.851 59.1198 66.1766 62.0441 68.106 64.8175C69.0627 66.2079 70.1765 67.5508 71.3953 68.8607C72.6226 70.1638 73.9575 71.4326 75.3665 72.6899C78.1802 75.211 81.3094 77.6673 84.3734 80.4818C85.8997 81.8921 87.4196 83.39 88.7883 85.0797C90.16 86.7635 91.411 88.6091 92.4439 90.6216C93.4739 92.6319 94.2895 94.8163 94.6952 97.132C95.0954 99.4392 95.0916 101.895 94.4102 104.241C93.7322 106.584 92.4342 108.763 90.7406 110.614C89.053 112.481 86.9808 114.001 84.8363 115.425C82.6819 116.847 80.409 118.142 78.1603 119.54C75.9132 120.936 73.6797 122.439 71.6761 124.275C67.6571 127.918 64.3301 132.553 62.1919 137.836C60.0253 143.1 59.1186 149.026 59.7157 154.938C60.2777 160.848 62.3109 166.746 65.7302 171.877L65.643 171.83C87.5487 171.828 111.32 171.827 135.958 171.825C136.595 171.825 137.23 171.825 137.816 171.825L137.719 171.884C138.624 170.058 139.362 168.146 139.996 166.217C140.631 164.286 141.149 162.322 141.538 160.341C142.325 156.381 142.608 152.337 142.239 148.372C141.896 144.407 140.847 140.533 139.153 137.001C138.292 135.244 137.314 133.545 136.148 131.99C135.021 130.406 133.709 128.975 132.411 127.545C129.798 124.7 127.087 121.993 124.294 119.429C121.514 116.849 118.613 114.461 115.865 111.947C114.5 110.684 113.176 109.368 112.095 107.862C110.998 106.37 110.238 104.636 109.895 102.836C109.729 101.935 109.627 101.024 109.622 100.115C109.601 99.6603 109.626 99.2075 109.635 98.7548C109.652 98.3025 109.712 97.8536 109.749 97.4039C109.886 95.6032 110.305 93.8406 110.891 92.1576C112.097 88.7845 114.293 85.8856 116.875 83.5784C118.154 82.4049 119.506 81.336 120.839 80.2709C121.506 79.739 122.165 79.2029 122.804 78.6489C123.431 78.0912 124.06 77.5093 124.735 77.0011C126.081 75.983 127.448 75.0259 128.759 74.0129C130.072 73.0037 131.335 71.9505 132.521 70.8325C133.704 69.7132 134.821 68.5418 135.83 67.2958C136.827 66.0423 137.75 64.7443 138.535 63.3768C140.112 60.6482 141.181 57.6994 141.782 54.7197C142.364 51.7319 142.461 48.7205 142.244 45.8017C142.036 42.8771 141.445 40.0519 140.722 37.339C140.02 34.6142 139.028 32.0411 138.046 29.5407L138.118 29.589C116.228 29.5729 98.5219 29.5598 86.2867 29.5509C80.1668 29.542 75.4156 29.5352 72.1919 29.5306C70.5809 29.5263 69.352 29.523 68.524 29.5208C67.6978 29.5187 67.2713 29.5119 67.2713 29.5119Z" fill="#00050A"/>
<path d="M135.236 49.1137C145.866 50.861 129.106 69.688 119.619 77.117C114.126 81.4188 108.226 86.0836 105.617 92.5547C102.658 99.8964 104.851 108.148 103.417 115.534C103.179 116.76 101.366 116.567 101.385 115.318C101.455 110.471 101.326 105.625 100.523 100.853C99.3835 94.0839 96.7812 87.3876 92.0372 82.4268C88.1647 78.3777 83.087 75.6868 78.9562 71.9012C72.9252 66.3746 66.7303 59.2463 66.126 51.0885C66.126 51.0885 77.7052 41.7614 84.1326 42.9387C91.6442 44.3146 99.0388 55.9053 110.678 54.5781C118.805 53.651 122.906 47.0873 135.236 49.1137Z" fill="#007BFF"/>
<path d="M136.181 149.885C135.912 147.226 135.203 144.218 132.844 142.964C131.415 142.204 129.675 142.289 128.109 142.701C126.544 143.112 125.073 143.824 123.522 144.285C120.469 145.192 117.124 145.086 114.135 143.988C111.251 142.928 108.775 141.013 106.097 139.507C103.419 138.002 100.284 136.88 97.3025 137.622C92.1613 138.901 89.4856 145.09 84.4028 146.585C82.1435 147.249 79.7177 146.876 77.4211 146.356C75.1244 145.835 72.8189 145.167 70.466 145.255C68.6221 145.324 66.7036 145.962 65.4111 147.226L65.4247 147.208C65.4116 147.221 65.4005 147.235 65.3874 147.248C65.1748 147.459 64.9796 147.686 64.8047 147.932C63.228 150.033 62.976 152.859 63.4609 155.426C64.0038 158.299 65.3463 160.955 66.7871 163.5C68.484 166.498 70.4113 169.482 73.217 171.481C76.6782 173.946 81.0309 172.245 85.2672 172.579C95.1486 173.359 105.78 173.891 115.662 173.125C120.882 172.72 125.775 173.286 129.918 170.083C132.832 167.83 134.727 164.434 135.641 160.866C136.555 157.297 136.551 153.55 136.181 149.885Z" fill="#007BFF"/>
<g opacity="0.24">
<path d="M117.534 144.789C116.975 145.643 116.738 146.788 117.276 147.655C117.813 148.522 118.541 149.31 118.774 150.304C119.14 151.864 118.201 153.39 117.501 154.831C116.247 157.41 115.677 160.352 116.1 163.187C116.523 166.023 117.977 168.732 120.247 170.484C121.251 171.258 122.555 171.859 123.764 171.48C124.903 171.123 125.639 169.967 125.865 168.795C126.092 167.624 125.905 166.417 125.756 165.232C125.066 159.737 125.207 154.137 126.174 148.684C126.336 147.772 126.49 146.731 125.912 146.007C125.544 145.545 124.955 145.328 124.394 145.141C122.191 144.407 119.814 145.222 117.534 144.789Z" fill="black"/>
</g>
<path d="M60.3442 175.211C60.3442 175.211 60.1456 171.899 64.4657 170.055H140.378C140.378 170.055 144.337 172.058 144.824 175.143L60.3442 175.211Z" fill="#263238"/>
<path d="M138.771 29.9148C138.732 29.9334 138.691 29.952 138.651 29.9707L67.2699 29.5112C67.2699 29.5112 67.0167 29.349 66.6368 29.0521C64.6032 27.4615 65.7445 24.1942 68.3261 24.2149L137.607 24.7744C140.467 24.7977 141.357 28.693 138.771 29.9148Z" fill="#263238"/>
<g opacity="0.24">
<path d="M127.345 57.1448C127.489 57.42 126.954 58.015 125.93 58.9234C124.904 59.8327 123.405 61.0799 121.5 62.6155C119.584 64.1384 117.264 65.9746 114.308 67.6881C112.828 68.5436 111.179 69.3198 109.377 69.9513C108.471 70.2553 107.531 70.5378 106.543 70.7347C105.561 70.9452 104.536 71.085 103.482 71.1333C101.38 71.254 99.2413 70.9461 97.328 70.2922C95.4252 69.632 93.8024 68.7015 92.3833 67.7682C90.9603 66.8246 89.7334 65.8933 88.5773 65.0019C87.4258 64.1083 86.3764 63.2469 85.4383 62.4368C81.6887 59.1881 79.7169 56.7992 80.0972 56.338C80.4902 55.8586 83.1443 57.3781 87.281 59.9199C88.3147 60.5547 89.4459 61.2493 90.6596 61.9942C91.8721 62.7328 93.1765 63.548 94.5062 64.3018C95.8403 65.0557 97.2323 65.7413 98.676 66.186C100.11 66.6145 101.639 66.8183 103.266 66.7272C106.517 66.5612 109.672 65.4156 112.406 64.0964C115.153 62.7518 117.61 61.2306 119.753 60.0309C121.894 58.8176 123.725 57.921 125.057 57.4446C126.391 56.9665 127.207 56.8801 127.345 57.1448Z" fill="black"/>
</g>
<path d="M101.44 124.388C102.223 124.112 103.16 124.901 103.022 125.72C102.884 126.539 101.74 126.976 101.09 126.459C100.441 125.941 100.611 124.729 101.379 124.411" fill="#007BFF"/>
<path d="M75.9081 68.9559C75.9026 68.961 75.8158 68.8733 75.6561 68.7018C75.4846 68.5138 75.2542 68.2614 74.9645 67.9438C74.6723 67.6075 74.2878 67.2187 73.8948 66.722C73.4959 66.2256 73.0444 65.6637 72.5468 65.0445C72.0865 64.3936 71.5639 63.6923 71.0387 62.9152C70.7889 62.5175 70.531 62.1067 70.265 61.6836C70.1342 61.4706 69.9923 61.2601 69.8656 61.0361C69.7428 60.81 69.6187 60.5809 69.493 60.3488C68.4507 58.5138 67.5229 56.365 66.8631 54.0175C66.2028 51.6688 65.8933 49.3468 65.8653 47.2331C65.8636 46.705 65.8924 46.19 65.9043 45.6899C65.9161 45.44 65.9115 45.1927 65.9365 44.9513C65.9623 44.7099 65.9877 44.4723 66.0127 44.239C66.066 43.7723 66.1033 43.32 66.166 42.8889C66.2435 42.4607 66.318 42.0491 66.3892 41.6557C66.5103 40.8659 66.7191 40.1726 66.8686 39.5572C66.9499 39.2511 67.0134 38.9631 67.0943 38.7039C67.1781 38.4477 67.2552 38.2126 67.3251 37.9988C67.4619 37.5914 67.5703 37.267 67.6512 37.0256C67.7283 36.8041 67.7719 36.6889 67.7791 36.6914C67.7863 36.694 67.7566 36.8138 67.6935 37.0396C67.6224 37.2835 67.5271 37.6113 67.4073 38.0233C67.3429 38.2385 67.2726 38.4748 67.1955 38.7323C67.121 38.9923 67.0634 39.2811 66.988 39.5873C66.8504 40.2035 66.653 40.8959 66.5425 41.6836C66.476 42.0754 66.4065 42.4857 66.3341 42.9122C66.2765 43.3412 66.2439 43.7914 66.1944 44.2555C66.1715 44.4876 66.1482 44.7239 66.1245 44.9636C66.1016 45.2037 66.108 45.4489 66.0978 45.6971C66.0893 46.1939 66.0635 46.705 66.0682 47.2293C66.1075 49.3269 66.4205 51.6273 67.0752 53.9565C67.7295 56.2849 68.6443 58.4202 69.6713 60.2501C69.7949 60.4813 69.9173 60.71 70.0376 60.9353C70.1621 61.1585 70.3023 61.369 70.4306 61.582C70.6919 62.0051 70.9456 62.4159 71.1912 62.8135C71.7074 63.5915 72.2207 64.2949 72.6713 64.9497C73.1579 65.5747 73.5996 66.1414 73.9901 66.6424C74.3729 67.1451 74.7477 67.5414 75.0293 67.8857C75.3059 68.2144 75.5253 68.4761 75.6891 68.6705C75.8382 68.8534 75.9136 68.9508 75.9081 68.9559Z" fill="#263238"/>
<path d="M71.889 131.866C71.8856 131.865 71.9127 131.817 71.9681 131.727C72.0308 131.628 72.1143 131.496 72.2201 131.329C72.3349 131.151 72.4738 130.936 72.6364 130.685C72.7194 130.557 72.8088 130.42 72.9036 130.275C73.0078 130.135 73.1298 129.994 73.253 129.84C73.5033 129.535 73.7811 129.195 74.0839 128.825C74.41 128.474 74.7835 128.11 75.1753 127.71C75.9795 126.933 76.9519 126.103 78.0826 125.264C80.3305 123.56 83.2306 121.867 86.3742 119.891C87.9344 118.887 89.5763 117.829 91.1288 116.541C92.6835 115.264 94.1822 113.79 95.3955 112.033C97.7883 108.476 98.7602 104.354 98.8449 100.67C98.9415 96.9585 98.1521 93.6527 97.2216 91.0173C96.2802 88.3726 95.2003 86.3593 94.4164 85.0015C94.0243 84.321 93.702 83.8026 93.4805 83.4537C93.3755 83.2855 93.2933 83.1534 93.231 83.0543C93.176 82.9637 93.1493 82.9163 93.1523 82.9141C93.1552 82.912 93.1883 82.9552 93.2497 83.042C93.3162 83.1386 93.4047 83.2665 93.5173 83.4295C93.7515 83.7713 94.0857 84.2829 94.4901 84.9584C95.2985 86.3055 96.4035 88.3141 97.3686 90.9652C98.3223 93.6066 99.1342 96.9314 99.0482 100.676C99.0325 101.609 98.9571 102.565 98.8144 103.532C98.6806 104.5 98.476 105.48 98.1944 106.457C97.6498 108.415 96.7757 110.36 95.5781 112.157C94.3486 113.939 92.8325 115.425 91.2652 116.71C89.6991 118.004 88.0491 119.062 86.4826 120.064C83.3272 122.034 80.4258 123.709 78.1753 125.39C77.0429 126.218 76.0684 127.035 75.2604 127.8C74.867 128.194 74.4905 128.552 74.1619 128.897C73.8548 129.261 73.574 129.594 73.3204 129.895C73.195 130.046 73.0709 130.184 72.9646 130.322C72.8672 130.465 72.7758 130.599 72.6902 130.724C72.5212 130.971 72.3768 131.181 72.2578 131.355C72.1443 131.517 72.055 131.645 71.9876 131.741C71.9254 131.825 71.8919 131.869 71.889 131.866Z" fill="#263238"/>
<path d="M67.9486 139.36C67.955 139.364 67.9228 139.431 67.8559 139.556C67.7746 139.701 67.675 139.879 67.5543 140.095C67.418 140.326 67.2562 140.611 67.0927 140.954C66.9259 141.296 66.715 141.674 66.5363 142.119C66.441 142.339 66.3414 142.569 66.2381 142.808C66.1361 143.048 66.0526 143.307 65.9531 143.569C65.746 144.092 65.5855 144.671 65.4026 145.275C65.0765 146.495 64.8042 147.86 64.6631 149.311C64.5378 150.765 64.5573 152.157 64.6559 153.415C64.7262 154.043 64.7783 154.642 64.8867 155.194C64.9367 155.47 64.9714 155.74 65.0282 155.995C65.0862 156.248 65.1425 156.492 65.1959 156.726C65.2903 157.196 65.4292 157.606 65.5309 157.972C65.6291 158.34 65.7363 158.649 65.8282 158.901C65.9078 159.135 65.973 159.328 66.0268 159.486C66.07 159.62 66.089 159.693 66.0823 159.696C66.0751 159.699 66.042 159.632 65.9857 159.503C65.9218 159.349 65.843 159.16 65.7481 158.931C65.6431 158.683 65.5237 158.376 65.4136 158.01C65.2997 157.645 65.1497 157.235 65.0447 156.764C64.9863 156.53 64.9253 156.285 64.8618 156.031C64.7999 155.775 64.7605 155.504 64.7063 155.226C64.5895 154.671 64.5293 154.068 64.4531 153.435C64.3421 152.165 64.3163 150.759 64.4429 149.292C64.5852 147.827 64.8664 146.449 65.2065 145.221C65.3966 144.612 65.5652 144.03 65.7812 143.506C65.8849 143.242 65.973 142.983 66.0802 142.742C66.189 142.504 66.2932 142.275 66.3935 142.054C66.5824 141.611 66.8048 141.235 66.983 140.897C67.158 140.557 67.3312 140.277 67.4798 140.052C67.6149 139.844 67.7267 139.673 67.8178 139.533C67.8974 139.415 67.9418 139.355 67.9486 139.36Z" fill="#263238"/>
<path d="M120.308 149.532C120.31 149.535 120.281 149.556 120.222 149.594C120.151 149.638 120.065 149.693 119.958 149.76C119.707 149.91 119.364 150.116 118.93 150.377C118.705 150.511 118.456 150.658 118.185 150.819C117.907 150.972 117.595 151.117 117.265 151.284C116.599 151.605 115.859 152.014 114.986 152.344C114.555 152.521 114.103 152.706 113.633 152.899C113.161 153.089 112.652 153.235 112.134 153.414C111.103 153.79 109.962 154.058 108.769 154.37C106.364 154.905 103.673 155.297 100.828 155.388C97.98 155.446 95.2713 155.194 92.8413 154.786C91.6339 154.537 90.4803 154.329 89.4308 154.007C88.9044 153.855 88.3878 153.735 87.9067 153.571C87.4269 153.403 86.9665 153.242 86.5261 153.087C85.6376 152.804 84.8774 152.434 84.1956 152.148C83.8572 151.998 83.5379 151.869 83.2529 151.731C82.9738 151.585 82.7176 151.45 82.4851 151.329C82.0379 151.091 81.6847 150.903 81.4268 150.766C81.3167 150.705 81.2273 150.655 81.1545 150.615C81.0939 150.579 81.0634 150.56 81.0655 150.557C81.0672 150.553 81.1011 150.566 81.1655 150.595C81.2409 150.63 81.3336 150.673 81.4479 150.727C81.7097 150.855 82.0688 151.03 82.5232 151.252C82.7574 151.368 83.0157 151.496 83.2974 151.636C83.5841 151.768 83.9051 151.891 84.2447 152.034C84.9291 152.309 85.6901 152.667 86.5786 152.94C87.0182 153.09 87.4785 153.245 87.9575 153.408C88.4382 153.567 88.9536 153.682 89.4783 153.829C90.5247 154.143 91.6741 154.343 92.876 154.585C95.2954 154.981 97.9893 155.224 100.821 155.167C103.651 155.077 106.328 154.692 108.723 154.171C109.911 153.867 111.048 153.607 112.076 153.239C112.593 153.065 113.102 152.923 113.573 152.739C114.043 152.551 114.494 152.371 114.926 152.199C115.799 151.88 116.54 151.483 117.209 151.173C117.541 151.011 117.855 150.872 118.135 150.725C118.409 150.571 118.66 150.43 118.888 150.301C119.33 150.056 119.679 149.862 119.934 149.721C120.045 149.661 120.136 149.613 120.209 149.574C120.273 149.543 120.306 149.528 120.308 149.532Z" fill="#263238"/>
<path d="M124.728 59.9065C124.73 59.9095 124.699 59.9378 124.638 59.9904C124.566 60.0497 124.474 60.125 124.36 60.2191C124.1 60.4261 123.738 60.715 123.279 61.0821C122.336 61.8271 120.974 62.9074 119.253 64.1944C117.528 65.4742 115.438 66.9649 112.954 68.3586C111.699 69.0286 110.364 69.7134 108.896 70.2258C107.433 70.7417 105.861 71.1372 104.213 71.2672C100.904 71.4912 97.768 70.6527 95.216 69.3958C93.94 68.7563 92.7889 68.0398 91.7412 67.3291C90.707 66.5994 89.763 65.8935 88.9279 65.2167C87.2513 63.8713 85.9376 62.7325 85.025 61.952C84.5799 61.5675 84.2301 61.2647 83.9785 61.0474C83.868 60.9492 83.7799 60.8704 83.71 60.8081C83.6503 60.7531 83.6207 60.7239 83.6232 60.7209C83.6257 60.7179 83.66 60.7416 83.7244 60.7908C83.7981 60.8488 83.8908 60.9221 84.0073 61.0135C84.2648 61.2232 84.6239 61.5149 85.0804 61.8864C86.01 62.647 87.3389 63.7675 89.0249 65.0948C89.8647 65.7626 90.8112 66.4584 91.8449 67.1784C92.8918 67.8788 94.0391 68.5848 95.3058 69.2133C97.8378 70.4478 100.936 71.2672 104.197 71.047C105.82 70.9187 107.374 70.5303 108.823 70.0221C110.278 69.5178 111.607 68.8419 112.856 68.1804C115.333 66.804 117.427 65.3306 119.161 64.0686C120.892 62.7998 122.268 61.7381 123.226 61.014C123.697 60.6608 124.067 60.3829 124.333 60.1839C124.452 60.0971 124.549 60.0272 124.624 59.9726C124.69 59.926 124.726 59.9035 124.728 59.9065Z" fill="#263238"/>
<g opacity="0.24">
<path d="M86.5312 153.092C88.5378 151.542 91.3574 151.918 93.8387 152.439C96.3195 152.961 98.819 153.809 101.33 153.458C103.222 153.193 104.958 152.262 106.826 151.858C108.693 151.453 110.959 151.752 111.994 153.358C103.778 156.029 94.6895 155.934 86.5312 153.092Z" fill="black"/>
</g>
<path d="M156.56 141.591L147.439 131.379L147.347 143.792L150.092 151.755L122.81 156.487L121.653 134.96L119.689 118.428C119.448 116.403 120.603 114.47 122.502 113.722L130.01 110.766L140.584 112.706L144.838 114.323C146.624 115.001 148.216 116.108 149.474 117.547L162.279 132.191" fill="#007BFF"/>
<path d="M146.8 128.942C146.802 128.899 147.4 128.987 148.34 128.834C149.271 128.689 150.558 128.233 151.625 127.251C152.691 126.267 153.249 125.021 153.469 124.105C153.697 123.18 153.658 122.577 153.701 122.578C153.714 122.578 153.736 122.726 153.74 122.997C153.744 123.268 153.718 123.663 153.621 124.14C153.435 125.087 152.882 126.39 151.775 127.414C150.666 128.434 149.322 128.88 148.363 128.989C147.879 129.047 147.484 129.042 147.214 129.015C146.944 128.989 146.798 128.956 146.8 128.942Z" fill="white"/>
<path d="M147.6 143.273C147.664 143.273 147.68 138.972 147.637 133.669C147.593 128.364 147.506 124.066 147.443 124.066C147.379 124.067 147.363 128.367 147.406 133.671C147.449 138.974 147.536 143.274 147.6 143.273Z" fill="#263238"/>
<path d="M146.6 146.428L130.115 139.792C128.785 139.257 127.875 138.013 127.766 136.584L126.559 120.78C126.559 120.78 126.702 114.058 122.503 113.73L120.115 114.671C117.028 116.31 116.263 120.805 116.683 124.275C117.28 129.206 117.529 136.183 118.197 140.463C118.744 143.963 120.749 147.043 124.175 147.944L144.479 152.34L146.6 146.428Z" fill="#007BFF"/>
<path d="M126.795 123.184C126.803 123.183 126.821 123.308 126.847 123.546C126.874 123.803 126.909 124.15 126.953 124.587C127.038 125.513 127.156 126.818 127.302 128.42C127.442 130.045 127.607 131.971 127.791 134.107C127.835 134.642 127.882 135.191 127.929 135.751C127.978 136.311 128.012 136.885 128.139 137.442C128.26 138.001 128.528 138.524 128.959 138.923C129.386 139.323 129.921 139.616 130.48 139.869C135.026 141.836 139.215 143.46 142.256 144.599C143.766 145.155 144.994 145.608 145.866 145.93C146.278 146.081 146.605 146.202 146.848 146.292C147.071 146.376 147.188 146.424 147.185 146.432C147.183 146.439 147.062 146.405 146.833 146.334C146.587 146.254 146.255 146.146 145.838 146.011C144.975 145.725 143.731 145.296 142.202 144.746C139.143 143.643 134.947 142.044 130.388 140.071C129.822 139.813 129.265 139.511 128.808 139.083C128.347 138.658 128.051 138.075 127.929 137.491C127.797 136.907 127.766 136.328 127.719 135.77C127.674 135.21 127.631 134.661 127.588 134.125C127.422 131.987 127.273 130.06 127.146 128.433C127.03 126.828 126.935 125.522 126.868 124.594C126.841 124.156 126.819 123.808 126.803 123.55C126.79 123.31 126.788 123.184 126.795 123.184Z" fill="#263238"/>
<path d="M117.352 131.785C117.36 131.785 117.37 131.858 117.385 131.997C117.399 132.162 117.417 132.364 117.439 132.608C117.488 133.171 117.554 133.929 117.635 134.85C117.725 135.796 117.84 136.922 118.004 138.166C118.174 139.409 118.374 140.779 118.749 142.17C118.926 142.873 119.176 143.522 119.553 144.079C119.931 144.641 120.351 145.145 120.785 145.592C121.656 146.483 122.587 147.137 123.423 147.571C125.11 148.448 126.336 148.46 126.318 148.519C126.318 148.526 126.244 148.524 126.104 148.514C125.964 148.504 125.756 148.488 125.494 148.435C124.969 148.342 124.213 148.136 123.352 147.709C122.494 147.286 121.536 146.634 120.64 145.734C120.194 145.283 119.763 144.772 119.375 144.2C118.98 143.626 118.713 142.932 118.536 142.229C118.156 140.816 117.963 139.441 117.803 138.192C117.649 136.942 117.55 135.813 117.48 134.863C117.41 133.914 117.374 133.144 117.354 132.612C117.349 132.367 117.344 132.165 117.341 131.999C117.34 131.859 117.344 131.785 117.352 131.785Z" fill="#263238"/>
<path d="M124.4 142.84C124.378 142.834 124.448 142.481 124.701 141.962C124.95 141.443 125.412 140.773 126.085 140.196C126.76 139.622 127.494 139.271 128.045 139.105C128.598 138.937 128.957 138.923 128.96 138.946C128.967 138.983 128.621 139.052 128.097 139.252C127.573 139.451 126.879 139.811 126.228 140.364C125.58 140.92 125.117 141.549 124.838 142.035C124.558 142.521 124.436 142.852 124.4 142.84Z" fill="#263238"/>
<path d="M127.644 130.819C127.646 130.815 127.681 130.831 127.748 130.865C127.826 130.906 127.923 130.956 128.043 131.019C128.308 131.144 128.694 131.34 129.219 131.518C130.256 131.878 131.88 132.244 133.84 131.913C135.775 131.597 138.025 130.456 139.583 128.345C140.354 127.302 140.951 126.018 141.087 124.61C141.155 123.911 141.098 123.182 140.867 122.497C140.641 121.813 140.227 121.178 139.678 120.681C139.133 120.182 138.455 119.831 137.744 119.74C137.042 119.63 136.29 119.815 135.804 120.285C135.569 120.521 135.422 120.837 135.426 121.163C135.425 121.487 135.55 121.808 135.744 122.068C136.135 122.602 136.792 122.85 137.421 122.943C138.706 123.12 139.968 122.887 141.024 122.428C142.086 121.965 142.953 121.277 143.578 120.518C144.204 119.756 144.59 118.932 144.82 118.184C145.052 117.434 145.123 116.753 145.134 116.201C145.142 115.647 145.084 115.218 145.041 114.929C145.017 114.796 144.997 114.688 144.981 114.602C144.968 114.528 144.963 114.489 144.967 114.488C144.967 114.488 145.2 115.076 145.22 116.201C145.222 116.76 145.163 117.452 144.939 118.219C144.716 118.983 144.333 119.829 143.7 120.617C143.067 121.401 142.184 122.113 141.098 122.595C140.016 123.074 138.724 123.322 137.392 123.145C136.737 123.05 136.019 122.792 135.576 122.195C135.358 121.905 135.213 121.544 135.213 121.163C135.208 120.78 135.382 120.403 135.651 120.133C136.204 119.598 137.021 119.408 137.774 119.523C138.536 119.62 139.254 119.994 139.828 120.518C140.404 121.041 140.838 121.706 141.076 122.427C141.317 123.147 141.375 123.906 141.303 124.63C141.159 126.087 140.54 127.402 139.747 128.465C138.145 130.618 135.84 131.764 133.866 132.067C131.869 132.383 130.228 131.987 129.191 131.599C128.142 131.199 127.644 130.819 127.644 130.819Z" fill="white"/>
<path d="M116.844 126.604C116.833 126.594 116.926 126.471 117.114 126.266C117.304 126.063 117.599 125.784 118.005 125.491C118.805 124.89 120.13 124.342 121.651 124.199C122.412 124.118 123.15 124.154 123.801 124.289C124.452 124.424 125.012 124.644 125.457 124.871C125.903 125.097 126.24 125.32 126.464 125.484C126.688 125.649 126.803 125.751 126.795 125.763C126.772 125.798 126.279 125.425 125.39 125.012C124.51 124.591 123.164 124.24 121.675 124.419C120.184 124.561 118.898 125.065 118.093 125.62C117.278 126.163 116.874 126.634 116.844 126.604Z" fill="white"/>
<path d="M119.483 115.295C119.517 115.258 119.907 115.797 120.818 116.265C121.268 116.499 121.85 116.694 122.516 116.763C123.179 116.833 123.929 116.757 124.642 116.469C125.35 116.17 125.935 115.693 126.355 115.174C126.778 114.655 127.051 114.105 127.205 113.621C127.518 112.647 127.413 111.99 127.463 111.992C127.475 111.991 127.508 112.149 127.518 112.442C127.53 112.733 127.496 113.161 127.354 113.667C127.214 114.173 126.946 114.753 126.514 115.301C126.084 115.85 125.475 116.357 124.727 116.673C123.974 116.978 123.185 117.049 122.494 116.965C121.8 116.882 121.201 116.662 120.744 116.402C120.286 116.144 119.96 115.866 119.762 115.652C119.563 115.438 119.474 115.302 119.483 115.295Z" fill="white"/>
<path d="M133.848 141.29C133.84 141.29 133.852 141.182 133.882 140.978C133.929 140.779 133.994 140.477 134.174 140.125C134.507 139.415 135.335 138.526 136.642 137.983C137.931 137.404 139.703 137.293 141.489 137.81C142.36 138.069 143.361 138.389 144.015 139.24C144.335 139.659 144.444 140.282 144.2 140.79C143.967 141.302 143.508 141.653 143.026 141.899C142.534 142.139 142 142.275 141.465 142.286C140.934 142.296 140.381 142.164 139.967 141.821C139.549 141.483 139.328 140.961 139.296 140.463C139.257 139.961 139.359 139.475 139.52 139.035C140.223 137.272 141.644 136.151 142.918 135.596C144.213 135.029 145.387 134.969 146.161 135.039C146.942 135.119 147.346 135.288 147.346 135.288C147.339 135.317 146.926 135.177 146.154 135.124C145.389 135.082 144.241 135.165 142.982 135.738C142.358 136.023 141.713 136.433 141.133 136.994C140.554 137.551 140.035 138.266 139.712 139.105C139.56 139.526 139.468 139.986 139.506 140.446C139.54 140.904 139.737 141.359 140.104 141.655C140.468 141.955 140.966 142.078 141.462 142.068C141.96 142.058 142.467 141.929 142.928 141.703C143.382 141.473 143.802 141.143 144.001 140.702C144.209 140.264 144.122 139.744 143.84 139.368C143.561 138.983 143.153 138.706 142.738 138.492C142.319 138.281 141.87 138.137 141.435 138.007C139.686 137.491 137.968 137.584 136.703 138.13C135.42 138.642 134.601 139.486 134.252 140.167C133.89 140.849 133.879 141.299 133.848 141.29Z" fill="white"/>
<path d="M122.872 147.243C122.865 147.202 123.501 147.148 124.453 146.809C125.4 146.477 126.661 145.797 127.694 144.655C128.726 143.513 129.275 142.189 129.51 141.214C129.752 140.232 129.741 139.596 129.784 139.598C129.797 139.598 129.812 139.756 129.807 140.042C129.803 140.329 129.766 140.744 129.662 141.249C129.462 142.252 128.921 143.626 127.857 144.803C126.793 145.98 125.48 146.656 124.503 146.956C124.011 147.11 123.601 147.188 123.317 147.221C123.032 147.256 122.873 147.257 122.872 147.243Z" fill="white"/>
<path d="M117.529 134.957C117.527 134.949 117.595 134.922 117.728 134.877C117.861 134.833 118.059 134.772 118.317 134.707C118.832 134.583 119.599 134.412 120.562 134.479C121.042 134.517 121.567 134.626 122.089 134.856C122.608 135.086 123.128 135.448 123.513 135.974C123.891 136.499 124.123 137.182 124.067 137.896C124.041 138.251 123.932 138.608 123.74 138.927C123.547 139.241 123.257 139.526 122.876 139.649C122.5 139.767 122.059 139.707 121.762 139.429C121.469 139.145 121.396 138.747 121.378 138.402C121.351 137.699 121.503 137.025 121.766 136.44C122.291 135.259 123.266 134.482 124.171 134.159C125.082 133.822 125.89 133.847 126.413 133.937C126.677 133.983 126.876 134.042 127.009 134.088C127.141 134.138 127.208 134.167 127.205 134.174C127.199 134.196 126.922 134.087 126.4 134.022C125.884 133.959 125.098 133.961 124.227 134.304C123.362 134.635 122.444 135.388 121.952 136.523C121.705 137.083 121.566 137.728 121.594 138.391C121.61 138.715 121.686 139.055 121.913 139.269C122.136 139.481 122.499 139.537 122.809 139.439C123.122 139.338 123.379 139.093 123.553 138.812C123.725 138.526 123.826 138.203 123.851 137.877C123.906 137.224 123.695 136.584 123.348 136.092C122.994 135.599 122.507 135.249 122.013 135.022C121.517 134.794 121.012 134.68 120.548 134.633C119.614 134.548 118.851 134.691 118.336 134.79C117.818 134.897 117.534 134.974 117.529 134.957Z" fill="white"/>
<g opacity="0.3">
<path d="M141.862 144.542C140.099 143.546 138.374 142.781 136.531 141.943C134.688 141.106 132.883 140.03 131.677 138.405C129.402 135.338 129.661 130.913 127.332 127.887C127.484 129.922 127.636 131.956 127.788 133.991C127.927 135.856 127.642 137.7 128.843 138.967C129.855 140.035 131.828 140.853 133.225 141.314C136.032 142.24 139.054 143.616 141.862 144.542Z" fill="black"/>
</g>
<path d="M170.51 167.77C170.51 167.77 184.303 171.587 184.856 171.782C185.687 172.074 185.548 175.118 184.255 175.071C183.643 175.049 173.66 175.443 172.399 175.364C171.137 175.285 167.332 173.786 167.332 173.786L170.51 167.77Z" fill="#007BFF"/>
<path d="M176.255 173.033C176.325 173.042 176.418 172.313 176.863 171.552C177.297 170.784 177.881 170.337 177.838 170.282C177.814 170.229 177.129 170.618 176.663 171.437C176.189 172.251 176.197 173.039 176.255 173.033Z" fill="#263238"/>
<path d="M174.815 172.39C174.883 172.402 175.022 171.75 175.39 171.029C175.75 170.305 176.19 169.804 176.141 169.757C176.103 169.712 175.564 170.163 175.183 170.925C174.797 171.685 174.756 172.386 174.815 172.39Z" fill="#263238"/>
<path d="M173.465 172.021C173.535 172.017 173.482 171.328 173.788 170.564C174.081 169.795 174.587 169.324 174.539 169.274C174.512 169.221 173.893 169.648 173.573 170.48C173.244 171.308 173.409 172.041 173.465 172.021Z" fill="#263238"/>
<path d="M173.71 170.248C173.734 170.254 173.857 169.869 173.857 169.222C173.857 168.899 173.819 168.514 173.718 168.097C173.667 167.889 173.599 167.673 173.512 167.457C173.468 167.347 173.417 167.221 173.291 167.119C173.162 167.003 172.928 167.027 172.818 167.142C172.691 167.252 172.651 167.407 172.634 167.532C172.62 167.659 172.613 167.777 172.616 167.896C172.619 168.134 172.65 168.361 172.701 168.571C172.803 168.993 172.967 169.346 173.125 169.626C173.447 170.186 173.725 170.471 173.745 170.456C173.776 170.434 173.545 170.113 173.27 169.55C173.135 169.269 172.993 168.924 172.908 168.525C172.866 168.326 172.842 168.114 172.842 167.895C172.848 167.683 172.845 167.418 172.969 167.316C173.035 167.261 173.094 167.258 173.151 167.301C173.212 167.347 173.263 167.442 173.303 167.542C173.388 167.748 173.458 167.952 173.511 168.15C173.62 168.547 173.672 168.916 173.694 169.227C173.735 169.852 173.672 170.242 173.71 170.248Z" fill="#263238"/>
<path d="M173.696 170.093C173.702 170.068 173.369 169.953 172.806 169.949C172.526 169.949 172.189 169.978 171.827 170.069C171.648 170.117 171.457 170.164 171.264 170.277C171.075 170.372 170.877 170.635 170.952 170.907C171.011 171.163 171.23 171.343 171.449 171.399C171.668 171.461 171.881 171.439 172.067 171.398C172.446 171.311 172.74 171.124 172.963 170.957C173.406 170.61 173.621 170.345 173.605 170.326C173.58 170.296 173.319 170.523 172.87 170.823C172.644 170.968 172.361 171.124 172.024 171.19C171.856 171.222 171.675 171.232 171.512 171.182C171.35 171.138 171.215 171.014 171.176 170.855C171.137 170.701 171.23 170.559 171.381 170.47C171.529 170.378 171.712 170.325 171.882 170.274C172.223 170.177 172.542 170.132 172.811 170.112C173.351 170.075 173.69 170.13 173.696 170.093Z" fill="#263238"/>
<path d="M178.377 173.19C178.445 173.182 178.377 172.592 178.648 171.945C178.907 171.293 179.367 170.919 179.324 170.866C179.301 170.809 178.724 171.136 178.435 171.858C178.137 172.577 178.321 173.214 178.377 173.19Z" fill="#263238"/>
<path d="M168.748 173.816C168.742 173.831 168.932 173.919 169.282 174.067C169.636 174.201 170.155 174.389 170.817 174.543C172.136 174.875 174.016 175.064 176.083 175.042C178.15 175.019 180.012 174.925 181.363 174.871C182.003 174.837 182.538 174.808 182.962 174.786C183.339 174.761 183.547 174.739 183.547 174.723C183.546 174.707 183.337 174.698 182.959 174.696C182.536 174.699 181.999 174.703 181.359 174.708C179.962 174.735 178.119 174.771 176.082 174.811C174.025 174.833 172.167 174.672 170.853 174.384C169.534 174.113 168.764 173.773 168.748 173.816Z" fill="#263238"/>
<path d="M168.343 174.126C168.362 174.158 168.739 173.937 169.377 173.658C170.006 173.388 170.95 173.064 171.987 173.224C173.026 173.383 173.763 174.081 174.242 174.566C174.726 175.068 175.009 175.401 175.037 175.378C175.058 175.36 174.823 174.994 174.362 174.455C174.129 174.189 173.834 173.879 173.448 173.6C173.066 173.319 172.573 173.08 172.023 172.996C170.911 172.826 169.931 173.197 169.307 173.51C168.675 173.834 168.329 174.103 168.343 174.126Z" fill="#263238"/>
<path d="M155.868 163.957C155.868 163.957 142.815 172.503 142.348 172.856C141.645 173.387 142.451 175.917 143.668 175.479C144.244 175.272 155.197 172.225 156.375 171.767C157.552 171.308 160.723 168.724 160.723 168.724L155.868 163.957Z" fill="#007BFF"/>
<path d="M151.992 170.729C152.049 170.717 151.817 169.964 151.118 169.332C150.426 168.693 149.655 168.531 149.648 168.589C149.624 168.655 150.316 168.903 150.963 169.503C151.618 170.092 151.929 170.759 151.992 170.729Z" fill="#263238"/>
<path d="M153.163 169.664C153.218 169.642 152.966 168.987 152.367 168.38C151.773 167.769 151.122 167.503 151.1 167.558C151.067 167.618 151.639 167.961 152.202 168.542C152.771 169.117 153.102 169.696 153.163 169.664Z" fill="#263238"/>
<path d="M154.341 168.91C154.4 168.912 154.335 168.163 153.771 167.474C153.213 166.778 152.494 166.56 152.483 166.618C152.453 166.681 153.078 166.975 153.591 167.619C154.115 168.254 154.274 168.926 154.341 168.91Z" fill="#263238"/>
<path d="M153.564 167.282C153.598 167.265 153.419 166.912 153.268 166.305C153.194 166.002 153.132 165.634 153.115 165.223C153.106 165.018 153.11 164.802 153.129 164.58C153.136 164.473 153.156 164.367 153.2 164.304C153.242 164.246 153.299 164.231 153.379 164.264C153.528 164.323 153.605 164.577 153.676 164.777C153.742 164.985 153.784 165.194 153.803 165.397C153.844 165.802 153.814 166.174 153.77 166.484C153.679 167.103 153.557 167.48 153.593 167.491C153.616 167.5 153.795 167.143 153.931 166.512C153.997 166.197 154.047 165.81 154.016 165.378C154 165.162 153.961 164.936 153.892 164.709C153.858 164.594 153.816 164.483 153.764 164.367C153.709 164.253 153.624 164.118 153.47 164.051C153.33 163.975 153.099 164.024 153.012 164.173C152.924 164.309 152.913 164.444 152.904 164.562C152.887 164.795 152.888 165.02 152.903 165.234C152.932 165.662 153.014 166.041 153.111 166.349C153.309 166.966 153.542 167.295 153.564 167.282Z" fill="#263238"/>
<path d="M153.535 167.145C153.552 167.178 153.857 167.023 154.383 166.895C154.645 166.832 154.963 166.778 155.318 166.768C155.495 166.765 155.686 166.759 155.854 166.801C156.025 166.841 156.157 166.947 156.166 167.106C156.178 167.269 156.087 167.429 155.946 167.52C155.805 167.617 155.63 167.662 155.46 167.682C155.119 167.722 154.802 167.659 154.543 167.59C154.024 167.441 153.706 167.304 153.692 167.34C153.682 167.363 153.968 167.55 154.495 167.747C154.758 167.838 155.095 167.926 155.482 167.895C155.672 167.877 155.882 167.833 156.072 167.708C156.263 167.588 156.418 167.35 156.396 167.088C156.385 166.806 156.117 166.616 155.908 166.582C155.689 166.533 155.493 166.547 155.308 166.555C154.935 166.579 154.606 166.653 154.339 166.738C153.803 166.913 153.521 167.123 153.535 167.145Z" fill="#263238"/>
<path d="M145.33 175.01C145.345 175.03 145.549 174.878 145.649 174.504C145.759 174.139 145.69 173.579 145.405 173.088C145.269 172.84 145.112 172.625 144.968 172.436C144.825 172.246 144.677 172.075 144.525 171.96C144.374 171.842 144.216 171.79 144.107 171.786C143.998 171.781 143.943 171.808 143.944 171.821C143.945 171.857 144.178 171.84 144.419 172.085C144.542 172.202 144.663 172.365 144.796 172.561C144.929 172.755 145.075 172.966 145.203 173.198C145.467 173.659 145.546 174.135 145.49 174.471C145.442 174.809 145.3 174.987 145.33 175.01Z" fill="#263238"/>
<path d="M150.019 171.514C150.08 171.52 150.061 170.857 149.559 170.263C149.064 169.663 148.416 169.527 148.411 169.587C148.386 169.651 148.938 169.868 149.382 170.411C149.837 170.945 149.952 171.527 150.019 171.514Z" fill="#263238"/>
<path d="M159.379 169.184C159.367 169.171 159.168 169.318 158.805 169.578C158.438 169.832 157.899 170.188 157.196 170.564C156.494 170.941 155.627 171.332 154.64 171.702C153.651 172.071 152.543 172.418 151.371 172.758C149.022 173.434 146.897 174.052 145.363 174.513C144.627 174.739 144.017 174.927 143.549 175.07C143.122 175.207 142.888 175.289 142.893 175.305C142.897 175.32 143.14 175.267 143.574 175.157C144.047 175.031 144.664 174.868 145.407 174.67C146.953 174.249 149.084 173.656 151.435 172.979C152.609 172.639 153.723 172.283 154.715 171.901C155.706 171.517 156.575 171.106 157.275 170.707C157.975 170.308 158.506 169.928 158.858 169.65C159.207 169.366 159.388 169.195 159.379 169.184Z" fill="#263238"/>
<path d="M159.866 169.36C159.873 169.334 159.461 169.182 158.76 169.066C158.071 168.957 157.024 168.901 156.017 169.401C155.518 169.648 155.121 170.025 154.843 170.409C154.559 170.793 154.372 171.177 154.231 171.502C153.955 172.155 153.843 172.576 153.868 172.586C153.902 172.6 154.07 172.196 154.378 171.571C154.688 170.963 155.178 170.074 156.12 169.607C157.059 169.139 158.057 169.161 158.739 169.227C159.431 169.3 159.858 169.396 159.866 169.36Z" fill="#263238"/>
<path d="M182.993 143.118C182.993 143.118 186.909 144.516 186.925 148.907C186.956 157.317 169.932 166.587 169.932 166.587L147.277 151.576L145.857 151.001C145.857 151.001 176.44 139.514 182.993 143.118Z" fill="#263238"/>
<path d="M158.751 159.167C158.761 159.18 158.971 159.037 159.341 158.767C159.713 158.498 160.242 158.098 160.891 157.597C162.188 156.595 163.953 155.173 165.851 153.544C167.75 151.913 169.421 150.384 170.608 149.253C171.202 148.688 171.677 148.225 171.999 147.898C172.322 147.572 172.495 147.387 172.484 147.376C172.473 147.364 172.279 147.528 171.937 147.833C171.567 148.167 171.082 148.605 170.497 149.133C169.283 150.232 167.596 151.74 165.701 153.369C163.805 154.996 162.059 156.435 160.789 157.469C160.179 157.968 159.672 158.381 159.286 158.696C158.933 158.988 158.742 159.155 158.751 159.167Z" fill="#455A64"/>
<path d="M176.597 146.268C176.605 146.212 175.595 146.113 174.414 146.466C173.23 146.811 172.435 147.442 172.473 147.485C172.511 147.545 173.337 147.019 174.48 146.688C175.618 146.345 176.598 146.339 176.597 146.268Z" fill="#455A64"/>
<path d="M174.645 144.943C174.624 144.889 173.898 145.208 173.302 145.954C172.698 146.694 172.539 147.471 172.597 147.479C172.663 147.502 172.911 146.797 173.482 146.099C174.043 145.394 174.681 145.003 174.645 144.943Z" fill="#455A64"/>
<path d="M184.236 171.574C184.248 171.548 183.966 171.493 183.652 171.751C183.344 171.998 183.082 172.491 182.998 173.066C182.913 173.646 183.041 174.178 183.204 174.516C183.365 174.861 183.541 175.022 183.561 175.006C183.592 174.984 183.468 174.793 183.356 174.456C183.241 174.122 183.149 173.63 183.226 173.099C183.304 172.57 183.521 172.114 183.762 171.872C184.002 171.621 184.241 171.611 184.236 171.574Z" fill="#263238"/>
<path d="M177.782 129.387L169.713 149.84L134.97 150.407L134.327 148.527L146.503 148.085L152.355 129.941L177.782 129.387Z" fill="#455A64"/>
<path d="M161.556 138.238C162.002 137.936 162.826 138.057 163.227 138.416C163.628 138.775 163.758 139.398 163.554 139.896C163.35 140.394 162.836 140.744 162.299 140.773C161.727 140.803 161.131 140.446 160.972 139.896C160.813 139.347 160.99 138.527 161.556 138.238Z" fill="white"/>
<path d="M172.076 167.619C172.076 167.619 140.068 146.624 138.757 146.187C137.446 145.75 134.279 143.675 131.112 144.548C127.944 145.422 125.104 148.262 123.684 152.412C122.873 154.783 122.49 158.829 122.31 161.863C122.095 165.491 123.218 169.108 125.591 171.86C126.671 173.112 128.003 174.202 129.582 174.694C129.916 174.797 130.262 174.887 130.617 174.964C136.669 176.276 142.888 173.559 146.288 168.384L147.035 167.247C147.035 167.247 167.974 174.94 168.302 174.831L172.076 167.619Z" fill="#263238"/>
<path d="M132.479 161.841C132.479 161.841 132.537 161.871 132.654 161.919C132.781 161.969 132.955 162.038 133.178 162.127C133.65 162.309 134.332 162.571 135.208 162.908C136.988 163.579 139.556 164.546 142.749 165.749C145.952 166.944 149.789 168.365 154.095 169.932C158.4 171.497 163.172 173.215 168.267 174.94L168.36 174.971L168.405 174.884C169.205 173.356 170.049 171.745 170.906 170.109C171.343 169.274 171.776 168.446 172.181 167.673L172.23 167.579L172.141 167.523C162.53 161.422 153.931 155.963 147.725 152.023C144.627 150.069 142.126 148.492 140.391 147.397C139.532 146.861 138.863 146.443 138.399 146.154C138.177 146.018 138.004 145.913 137.879 145.836C137.762 145.765 137.699 145.734 137.699 145.734C137.699 145.734 137.754 145.778 137.868 145.855C137.99 145.936 138.158 146.048 138.376 146.192C138.834 146.489 139.496 146.919 140.345 147.471C142.071 148.579 144.559 150.177 147.641 152.157C153.836 156.112 162.421 161.591 172.017 167.716L171.977 167.566C171.572 168.339 171.139 169.168 170.702 170.002C169.846 171.638 169.003 173.25 168.203 174.778L168.341 174.723C163.248 173.002 158.474 171.292 154.164 169.74C149.862 168.174 146.018 166.775 142.803 165.605C139.6 164.43 137.023 163.485 135.237 162.83C134.355 162.509 133.669 162.259 133.194 162.086C132.967 162.006 132.791 161.944 132.662 161.898C132.542 161.857 132.479 161.841 132.479 161.841Z" fill="#455A64"/>
<path d="M135.798 87.2837C136.344 85.8082 137.55 85.1675 139.079 84.7974C140.608 84.4272 142.309 84.8655 143.469 85.9281C144.245 86.6387 144.814 87.6208 145.772 88.0553C147.35 88.7706 149.371 87.7254 150.867 88.5995C151.752 89.117 152.187 90.2948 151.85 91.2633C151.513 92.2318 150.441 92.8857 149.426 92.7417C150.454 93.2275 150.646 94.7749 149.938 95.6647C149.23 96.5545 147.921 96.7954 146.827 96.4859C145.733 96.1763 144.824 95.4127 144.051 94.5789C143.278 93.745 142.601 92.8196 141.765 92.0497C140.928 91.2798 139.884 90.6598 138.748 90.6175C137.21 90.5603 135.791 91.594 134.983 92.9043C134.176 94.2146 133.874 95.7685 133.65 97.2909C133.425 98.8138 133.255 100.367 132.668 101.79C132.598 101.957 132.5 102.142 132.323 102.179C132.068 102.233 131.881 101.95 131.778 101.71C130.621 98.9985 130.004 96.0581 129.973 93.1106C129.955 91.3988 130.146 89.7963 131.209 88.4543C132.272 87.1122 134.724 86.2771 135.798 87.2837Z" fill="#263238"/>
<path d="M132.181 94.0999L129.828 111.199C129.428 114.107 131.543 116.758 134.467 117.014C137.195 117.253 139.631 115.306 140.002 112.591C140.178 111.304 140.327 110.231 140.354 110.1C140.354 110.1 144.763 110.289 145.671 106.024C146.109 103.963 146.666 99.6439 147.125 95.7308C147.618 91.5285 144.796 87.6535 140.647 86.8243L140.234 86.7417C135.733 86.1132 132.685 89.5838 132.181 94.0999Z" fill="#FFBE9D"/>
<path d="M140.379 110.069C140.379 110.069 137.633 109.749 135.121 107.371C135.121 107.371 135.824 110.712 140.167 111.179L140.379 110.069Z" fill="#EB996E"/>
<path d="M145.309 98.3827C145.256 98.7076 144.937 98.9303 144.597 98.8812C144.257 98.8321 144.025 98.5297 144.078 98.2049C144.131 97.8801 144.45 97.6569 144.789 97.706C145.129 97.7551 145.362 98.0579 145.309 98.3827Z" fill="#263238"/>
<path d="M145.792 97.6599C145.701 97.7243 145.306 97.2898 144.649 97.1602C143.994 97.0213 143.444 97.2631 143.389 97.1683C143.361 97.1255 143.467 96.9972 143.708 96.8862C143.945 96.7753 144.327 96.6978 144.736 96.7812C145.145 96.865 145.459 97.0844 145.626 97.2784C145.797 97.474 145.837 97.6316 145.792 97.6599Z" fill="#263238"/>
<path d="M138.826 97.3046C138.773 97.6294 138.454 97.8522 138.114 97.8031C137.774 97.7539 137.541 97.4516 137.594 97.1268C137.647 96.8019 137.966 96.5787 138.306 96.6279C138.646 96.6766 138.879 96.9798 138.826 97.3046Z" fill="#263238"/>
<path d="M139.311 96.515C139.219 96.5794 138.824 96.1448 138.168 96.0153C137.513 95.8763 136.963 96.1182 136.908 96.0233C136.88 95.9805 136.985 95.8522 137.226 95.7417C137.463 95.6307 137.845 95.5532 138.254 95.6367C138.663 95.7209 138.977 95.9403 139.144 96.1338C139.315 96.3291 139.355 96.487 139.311 96.515Z" fill="#263238"/>
<path d="M140.719 101.832C140.723 101.794 141.146 101.805 141.825 101.852C141.996 101.868 142.161 101.867 142.212 101.758C142.276 101.644 142.242 101.45 142.2 101.238C142.123 100.801 142.043 100.342 141.959 99.8615C141.633 97.905 141.433 96.3097 141.512 96.2969C141.591 96.2847 141.919 97.8605 142.245 99.8171C142.321 100.299 142.394 100.758 142.463 101.197C142.489 101.401 142.555 101.638 142.419 101.873C142.348 101.99 142.207 102.056 142.094 102.063C141.98 102.075 141.885 102.057 141.801 102.046C141.128 101.949 140.714 101.869 140.719 101.832Z" fill="#263238"/>
<path d="M138.701 101.923C138.809 101.938 138.668 102.651 139.178 103.28C139.685 103.909 140.462 103.981 140.448 104.082C140.449 104.128 140.251 104.186 139.928 104.131C139.611 104.079 139.172 103.886 138.86 103.501C138.55 103.117 138.473 102.671 138.506 102.373C138.538 102.07 138.653 101.909 138.701 101.923Z" fill="#263238"/>
<path d="M139.998 93.9399C139.897 94.1055 139.258 93.8899 138.469 93.8289C137.681 93.7519 137.014 93.8535 136.944 93.6727C136.913 93.5867 137.055 93.4406 137.341 93.3178C137.625 93.195 138.055 93.1103 138.528 93.1509C139.001 93.1928 139.41 93.3508 139.668 93.5215C139.928 93.6917 140.043 93.8607 139.998 93.9399Z" fill="#263238"/>
<path d="M145.93 95.7082C145.784 95.8344 145.363 95.5892 144.82 95.4727C144.281 95.3376 143.794 95.3723 143.719 95.1949C143.688 95.1098 143.791 94.9747 144.02 94.8739C144.247 94.7727 144.602 94.724 144.973 94.8099C145.345 94.8963 145.642 95.0967 145.801 95.2872C145.963 95.4791 145.995 95.6455 145.93 95.7082Z" fill="#263238"/>
<path d="M131.904 97.3309C131.838 97.2847 129.14 95.8749 128.649 98.8169C128.158 101.759 131.213 101.645 131.232 101.561C131.252 101.478 131.904 97.3309 131.904 97.3309Z" fill="#FFBE9D"/>
<path d="M130.516 100.317C130.505 100.306 130.459 100.345 130.366 100.37C130.275 100.395 130.126 100.397 129.982 100.314C129.69 100.148 129.511 99.611 129.585 99.0783C129.622 98.8094 129.721 98.5637 129.851 98.3685C129.977 98.1682 130.141 98.0411 130.302 98.0395C130.464 98.0293 130.559 98.1415 130.581 98.2304C130.607 98.3194 130.578 98.3749 130.593 98.3825C130.6 98.3914 130.664 98.3439 130.66 98.2182C130.658 98.1576 130.635 98.0827 130.575 98.0145C130.514 97.9454 130.415 97.8989 130.304 97.8925C130.075 97.8705 129.836 98.045 129.693 98.2593C129.537 98.4727 129.42 98.7475 129.378 99.0495C129.298 99.6454 129.509 100.251 129.914 100.444C130.112 100.533 130.295 100.5 130.395 100.445C130.5 100.388 130.526 100.325 130.516 100.317Z" fill="#EB996E"/>
<path d="M148.215 95.0373C146.232 95.1622 144.211 94.2631 142.976 92.7055C142.112 91.6159 141.563 90.1878 140.34 89.5259C139.517 89.0804 138.504 89.0753 137.611 89.3586C136.719 89.6419 135.933 90.1899 135.228 90.807C135.62 93.1451 134.581 95.4595 133.567 97.6028C133.456 97.8396 133.327 98.0932 133.092 98.2093C132.693 98.4062 132.217 98.0949 131.979 97.7193C131.597 97.1179 131.552 96.3671 131.567 95.6547C131.599 94.0323 131.883 92.4019 132.542 90.9188C133.201 89.4361 134.248 88.1059 135.618 87.2361C137.33 86.1494 139.487 85.8394 141.468 86.2671C143.45 86.6948 145.25 87.8306 146.598 89.3459C147.223 90.0489 147.767 90.8561 147.98 91.7725" fill="#263238"/>
<path d="M37.555 164.012C37.5512 164.01 37.5762 163.95 37.6291 163.834C37.6884 163.707 37.7676 163.538 37.8692 163.322C38.0729 162.87 38.338 162.185 38.5743 161.274C39.041 159.453 39.2037 156.67 38.5142 153.365C38.194 151.71 37.6778 149.934 37.0472 148.052C36.4264 146.167 35.7052 144.166 35.1161 142.004C34.5338 139.847 34.0738 137.505 34.1624 135.05C34.2517 132.59 34.9797 130.135 35.781 127.691C36.5801 125.243 37.4068 122.85 37.6545 120.443C37.9344 118.041 37.4203 115.683 36.326 113.75C35.266 111.797 33.9324 110.127 32.9342 108.397C31.9204 106.672 31.2864 104.899 30.8955 103.25C30.1379 99.9246 30.4034 97.1232 30.7663 95.2768C31.1598 93.4206 31.5985 92.4609 31.5985 92.4609C31.6027 92.4626 31.5858 92.5257 31.5494 92.6481C31.5079 92.7815 31.452 92.9602 31.3808 93.1881C31.2339 93.6624 31.0442 94.3709 30.8637 95.2958C30.5321 97.1385 30.298 99.9208 31.0708 103.209C31.4693 104.84 32.1063 106.59 33.1163 108.291C34.112 110 35.4515 111.664 36.5327 113.64C37.6503 115.594 38.1877 118.029 37.9027 120.469C37.6537 122.916 36.8206 125.325 36.0232 127.77C35.2224 130.212 34.5028 132.641 34.4118 135.06C34.3212 137.477 34.7692 139.797 35.3426 141.944C35.922 144.095 36.6347 146.096 37.2479 147.987C37.8705 149.875 38.3804 151.664 38.6908 153.331C39.362 156.661 39.1706 159.472 38.6705 161.299C38.4176 162.214 38.1356 162.897 37.9158 163.344C37.8048 163.556 37.7176 163.722 37.6524 163.846C37.5914 163.958 37.5588 164.014 37.555 164.012Z" fill="#263238"/>
<path d="M34.286 110.109C34.286 110.109 32.2591 103.628 35.8948 99.833C36.0223 99.6996 36.2472 99.7627 36.2802 99.9444C36.4742 101.014 36.7168 104.274 34.286 110.109Z" fill="#007BFF"/>
<path d="M35.5003 101.988C35.5346 101.995 35.4766 102.451 35.3639 103.184C35.2309 104.008 35.0742 104.974 34.9015 106.042C34.7321 107.111 34.5783 108.077 34.4479 108.901C34.3369 109.633 34.2705 110.087 34.2332 110.084C34.2006 110.081 34.2035 109.62 34.2696 108.879C34.3365 108.138 34.4674 107.12 34.6508 106.001C34.8337 104.883 35.0285 103.876 35.1873 103.151C35.3453 102.425 35.4656 101.982 35.5003 101.988Z" fill="#263238"/>
<path d="M36.6689 125.393C36.6689 125.393 37.9085 118.717 42.8965 117.063C43.0718 117.005 43.2408 117.165 43.1849 117.342C42.8562 118.378 41.5459 121.373 36.6689 125.393Z" fill="#007BFF"/>
<path d="M41.5361 118.79C41.5632 118.812 41.2989 119.188 40.8564 119.783C40.3533 120.449 39.7629 121.23 39.1112 122.094C38.4615 122.959 37.8737 123.742 37.3731 124.408C36.9327 125.003 36.6617 125.373 36.6303 125.353C36.6024 125.336 36.8209 124.93 37.2258 124.306C37.6315 123.683 38.2231 122.843 38.9083 121.941C39.5927 121.038 40.2364 120.239 40.7158 119.672C41.1948 119.104 41.509 118.768 41.5361 118.79Z" fill="#263238"/>
<path d="M35.3193 142.147C35.3193 142.147 34.5664 135.398 38.8593 132.367C39.0101 132.26 39.2185 132.365 39.2163 132.55C39.2024 133.637 38.8187 136.884 35.3193 142.147Z" fill="#007BFF"/>
<path d="M38.0605 134.41C38.0931 134.424 37.9491 134.86 37.6984 135.558C37.4104 136.341 37.0725 137.261 36.699 138.276C36.3288 139.293 35.9938 140.212 35.7084 140.995C35.4598 141.693 35.3078 142.126 35.2718 142.116C35.24 142.107 35.3315 141.655 35.5373 140.94C35.7444 140.226 36.0667 139.251 36.4605 138.188C36.8535 137.125 37.2368 136.174 37.5311 135.492C37.825 134.81 38.0279 134.397 38.0605 134.41Z" fill="#263238"/>
<path d="M39.0777 158.978C39.0777 158.978 38.567 152.207 42.9654 149.331C43.12 149.23 43.3245 149.342 43.3156 149.526C43.2631 150.613 42.763 153.843 39.0777 158.978Z" fill="#007BFF"/>
<path d="M42.0921 151.348C42.1242 151.362 41.9646 151.794 41.6893 152.482C41.3734 153.255 41.0028 154.161 40.5933 155.162C40.1872 156.165 39.8192 157.072 39.5058 157.844C39.2322 158.533 39.0653 158.96 39.0298 158.949C38.9984 158.939 39.1056 158.49 39.3372 157.783C39.5697 157.077 39.9271 156.114 40.3587 155.066C40.7894 154.018 41.2069 153.081 41.525 152.41C41.8422 151.739 42.0599 151.333 42.0921 151.348Z" fill="#263238"/>
<path d="M31.3757 104.405C31.3757 104.405 25.3565 101.262 25.2383 96.0075C25.2341 95.8228 25.4374 95.7085 25.5894 95.8135C26.4838 96.4318 28.963 98.5633 31.3757 104.405Z" fill="#007BFF"/>
<path d="M26.4888 97.8172C26.518 97.7977 26.7997 98.1606 27.2388 98.7586C27.7275 99.4345 28.3018 100.229 28.9358 101.105C29.5723 101.98 30.1482 102.771 30.6387 103.445C31.0782 104.041 31.3527 104.409 31.3243 104.433C31.2993 104.455 30.9753 104.126 30.4972 103.556C30.0204 102.986 29.3915 102.174 28.7295 101.254C28.0672 100.334 27.4921 99.4853 27.0906 98.8607C26.6891 98.2356 26.4596 97.8366 26.4888 97.8172Z" fill="#263238"/>
<path d="M37.8387 118.331C37.8387 118.331 31.6396 115.559 31.203 110.322C31.1877 110.138 31.3838 110.011 31.5414 110.107C32.4718 110.67 35.0754 112.646 37.8387 118.331Z" fill="#007BFF"/>
<path d="M32.5597 112.04C32.5877 112.019 32.8909 112.364 33.3656 112.934C33.8946 113.579 34.5158 114.337 35.2019 115.173C35.8901 116.007 36.5131 116.762 37.0437 117.406C37.5189 117.974 37.8149 118.324 37.7882 118.35C37.7645 118.373 37.4215 118.065 36.9094 117.525C36.3987 116.984 35.722 116.212 35.0054 115.334C34.2884 114.456 33.6629 113.643 33.2242 113.044C32.785 112.445 32.5318 112.061 32.5597 112.04Z" fill="#263238"/>
<path d="M34.2731 133.857C34.2731 133.857 30.017 128.566 32.0133 123.705C32.0832 123.534 32.3157 123.511 32.4127 123.668C32.9848 124.593 34.4023 127.538 34.2731 133.857Z" fill="#007BFF"/>
<path d="M32.4373 125.863C32.472 125.857 32.5847 126.303 32.7477 127.026C32.9248 127.841 33.1327 128.799 33.3627 129.856C33.5956 130.912 33.8061 131.868 33.9856 132.682C34.1499 133.405 34.2541 133.851 34.2181 133.862C34.1868 133.872 34.0212 133.441 33.8116 132.727C33.6032 132.014 33.3521 131.018 33.1145 129.91C32.8756 128.802 32.6893 127.794 32.5716 127.061C32.4534 126.327 32.403 125.87 32.4373 125.863Z" fill="#263238"/>
<path d="M38.4852 152.125C38.4852 152.125 32.3339 149.249 31.9849 144.006C31.9726 143.821 32.1708 143.698 32.3271 143.796C33.2482 144.374 35.8184 146.395 38.4852 152.125Z" fill="#007BFF"/>
<path d="M33.3128 145.751C33.3411 145.73 33.6384 146.08 34.1034 146.658C34.6214 147.312 35.2299 148.08 35.9016 148.928C36.5758 149.773 37.186 150.538 37.7057 151.191C38.1711 151.766 38.4612 152.122 38.4341 152.147C38.41 152.169 38.072 151.856 37.5693 151.308C37.0679 150.759 36.4039 149.975 35.7021 149.085C35 148.196 34.3884 147.372 33.9599 146.766C33.5313 146.16 33.2844 145.772 33.3128 145.751Z" fill="#263238"/>
<path d="M50.7404 125.43C50.7464 125.43 50.7489 125.481 50.7481 125.579C50.7451 125.697 50.7417 125.84 50.7375 126.013C50.7193 126.421 50.6951 126.972 50.6646 127.66C50.5854 129.107 50.4749 131.126 50.3423 133.54L50.3419 133.546L50.3402 133.554C49.9011 136.011 48.6496 138.735 46.9688 141.379C45.7356 143.327 44.443 145.098 43.3284 146.745C42.2061 148.387 41.2592 149.908 40.599 151.256C39.9345 152.602 39.5483 153.759 39.3221 154.567C39.2141 154.973 39.1328 155.289 39.0858 155.506C39.0354 155.721 39.0045 155.834 38.9956 155.832C38.9871 155.831 39.0007 155.715 39.0354 155.496C39.0659 155.276 39.132 154.955 39.226 154.542C39.4238 153.722 39.7876 152.546 40.4368 151.178C41.0818 149.809 42.0198 148.267 43.1336 146.614C44.2406 144.955 45.5263 143.182 46.7528 141.244C48.4248 138.613 49.6698 135.931 50.1251 133.513L50.1234 133.527C50.2928 131.115 50.4347 129.099 50.5363 127.653C50.5918 126.967 50.6363 126.417 50.6693 126.01C50.6866 125.838 50.701 125.696 50.7129 125.578C50.726 125.48 50.7349 125.43 50.7404 125.43Z" fill="#263238"/>
<path d="M47.0778 140.872C47.0778 140.872 49.6832 134.601 46.4061 130.493C46.291 130.349 46.0614 130.391 46.0123 130.569C45.7222 131.617 45.1852 134.841 47.0778 140.872Z" fill="#007BFF"/>
<path d="M46.6049 132.676C46.6396 132.672 46.7196 133.126 46.8115 133.862C46.9038 134.599 47.0067 135.62 47.0876 136.75C47.1694 137.88 47.2071 138.907 47.2066 139.65C47.2049 140.394 47.1668 140.854 47.1338 140.854C47.0965 140.853 47.0715 140.395 47.0271 139.656C46.9716 138.824 46.9064 137.848 46.834 136.768C46.7586 135.689 46.6904 134.712 46.6324 133.879C46.5862 133.139 46.5697 132.68 46.6049 132.676Z" fill="#263238"/>
<g opacity="0.3">
<path d="M47.0778 140.872C47.0778 140.872 49.6832 134.601 46.4061 130.493C46.291 130.349 46.0614 130.391 46.0123 130.569C45.7222 131.617 45.1852 134.841 47.0778 140.872Z" fill="black"/>
</g>
<path d="M39.0102 155.985C39.0102 155.985 41.0984 149.523 37.4987 145.694C37.3721 145.559 37.1472 145.62 37.1125 145.802C36.9083 146.87 36.6348 150.128 39.0102 155.985Z" fill="#007BFF"/>
<path d="M37.8736 147.859C37.9079 147.853 38.0244 148.298 38.1756 149.025C38.3272 149.752 38.5127 150.761 38.685 151.881C38.8583 153.001 38.9789 154.02 39.0391 154.762C39.098 155.503 39.0967 155.964 39.0641 155.966C39.0268 155.969 38.965 155.515 38.8608 154.781C38.738 153.957 38.5936 152.989 38.4343 151.919C38.2717 150.849 38.1243 149.881 37.999 149.056C37.8927 148.322 37.8393 147.866 37.8736 147.859Z" fill="#263238"/>
<g opacity="0.3">
<path d="M39.0102 155.985C39.0102 155.985 41.0984 149.523 37.4987 145.694C37.3721 145.559 37.1472 145.62 37.1125 145.802C36.9083 146.87 36.6348 150.128 39.0102 155.985Z" fill="black"/>
</g>
<path d="M50.3965 133.207C50.3965 133.207 55.9595 129.313 55.398 124.088C55.3781 123.904 55.1617 123.817 55.0249 123.94C54.2177 124.669 52.0346 127.103 50.3965 133.207Z" fill="#007BFF"/>
<g opacity="0.3">
<path d="M50.3965 133.207C50.3965 133.207 55.9595 129.313 55.398 124.088C55.3781 123.904 55.1617 123.817 55.0249 123.94C54.2177 124.669 52.0346 127.103 50.3965 133.207Z" fill="black"/>
</g>
<path d="M54.3898 126.039C54.4212 126.055 54.2454 126.48 53.9278 127.152C53.6102 127.823 53.1498 128.739 52.6116 129.737C52.0741 130.734 51.5554 131.621 51.156 132.248C50.7558 132.875 50.4767 133.242 50.4492 133.224C50.4179 133.204 50.6423 132.804 51.0014 132.156C51.4008 131.425 51.8696 130.565 52.388 129.616C52.9034 128.665 53.37 127.803 53.7677 127.07C54.126 126.421 54.3585 126.024 54.3898 126.039Z" fill="#263238"/>
<path d="M41.2539 149.583C41.2539 149.583 47.9634 148.537 49.7607 143.598C49.8238 143.425 49.6679 143.251 49.4905 143.302C48.4449 143.6 45.4131 144.823 41.2539 149.583Z" fill="#007BFF"/>
<g opacity="0.3">
<path d="M41.2539 149.583C41.2539 149.583 47.9634 148.537 49.7607 143.598C49.8238 143.425 49.6679 143.251 49.4905 143.302C48.4449 143.6 45.4131 144.823 41.2539 149.583Z" fill="black"/>
</g>
<path d="M47.9949 144.912C48.0161 144.94 47.671 145.244 47.0903 145.707C46.5097 146.17 45.6928 146.79 44.7704 147.448C43.8485 148.107 42.9922 148.675 42.3574 149.062C41.7217 149.449 41.3096 149.655 41.2927 149.627C41.2736 149.595 41.6514 149.335 42.2591 148.912C42.9401 148.431 43.7392 147.866 44.6226 147.241C45.5043 146.614 46.3026 146.047 46.9823 145.564C47.5901 145.138 47.9733 144.884 47.9949 144.912Z" fill="#263238"/>
<path d="M34.8505 161.926L32.8936 175.099H45.0902L43.5089 161.926H34.8505Z" fill="#455A64"/>
<path d="M43.9967 166.01C43.9967 166.08 41.7945 166.137 39.0786 166.137C36.3619 166.137 34.1602 166.08 34.1602 166.01C34.1602 165.94 36.3619 165.883 39.0786 165.883C41.7945 165.883 43.9967 165.94 43.9967 166.01Z" fill="#263238"/>
<path d="M44.2403 167.057C44.2403 167.127 41.9657 167.184 39.1609 167.184C36.3548 167.184 34.0811 167.127 34.0811 167.057C34.0811 166.986 36.3548 166.93 39.1609 166.93C41.9657 166.93 44.2403 166.987 44.2403 167.057Z" fill="#263238"/>
</g>
<defs>
<clipPath id="clip0_19581_36529">
<rect width="212.252" height="194.564" fill="white" transform="translate(0.874023 0.0546875)"/>
</clipPath>
</defs>
</svg>
