<svg width="41" height="41" viewBox="0 0 41 41" fill="none" xmlns="http://www.w3.org/2000/svg">
<path fill-rule="evenodd" clip-rule="evenodd" d="M8.14117 3.09723C5.99413 3.70262 4.25091 5.55034 3.69341 7.81146C3.46924 8.72057 3.46488 9.0422 3.48539 23.0802L3.5059 37.1259H18.9596H34.4132C35.5132 37.1259 37.5673 33.763 37.5673 32.4704C37.5673 27.6394 37.5863 17.7342 37.5863 17.7342L37.6054 2.99805L23.0137 3.00799C13.5115 3.01454 8.32412 3.04563 8.14117 3.09723ZM34.9696 18.9376C34.9696 29.66 34.8746 31.3901 34.8746 32.1942C34.5334 33.1857 34.0402 33.9003 33.3983 34.3331C32.5266 34.9207 33.668 34.8771 19.1742 34.8771H6.13958V21.8609C6.13958 12.4127 6.16121 8.78417 6.21852 8.62398C6.75607 7.12038 7.72013 6.16062 8.85746 5.9968C9.0815 5.96453 15.0484 5.94244 22.1172 5.94764L34.9696 5.95711V18.9376Z" fill="#45B4A7"/>
<path d="M9.22975 10.8876C9.56728 10.1442 10.9393 9.35645 12.3168 9.11506C13.7002 8.87266 15.0769 9.1127 16.0265 9.76172L16.257 9.9193L16.799 9.61747C18.9327 8.42919 21.7019 9.03111 22.5963 10.8776C22.9914 11.693 22.9931 11.7149 22.9939 15.8335L22.9947 19.6343L22.6401 19.7197C21.7707 19.9292 20.5157 19.7859 20.1736 19.438C19.8037 19.0619 19.8017 19.0436 19.764 15.6761L19.7289 12.5332L19.4724 12.2692C19.1387 11.9258 18.7336 11.8497 18.1878 12.028C17.6318 12.2096 17.6511 12.0655 17.6572 16.0108C17.6602 17.9024 17.6614 19.4915 17.6598 19.5422C17.6516 19.8198 15.6553 19.9108 15.1639 19.656C14.4109 19.2656 14.3588 18.9887 14.3573 15.3749L14.3562 12.5623L14.1582 12.3241C13.7624 11.8481 12.9029 11.7991 12.5188 12.2307L12.3195 12.4545V16.0087V19.5629L12.1615 19.6626C11.5085 20.0744 9.56749 19.7226 9.26206 19.137L9.08887 18.8049V15.0014C9.08887 11.3497 9.09449 11.1855 9.22975 10.8876Z" fill="#007BFF"/>
<path d="M24.6932 12.2441C24.7653 10.5788 25.6663 9.58362 27.5246 9.11648C29.4906 8.62236 31.9669 9.4288 32.1672 10.6285C32.3954 11.995 31.8736 12.4295 30.4813 12.0327C29.0929 11.637 27.946 11.7972 27.946 12.3868C27.946 12.7083 28.0785 12.8047 28.7751 12.9895C30.8587 13.5421 31.7171 14.0321 32.2567 14.9767C33.1292 16.5044 32.5876 18.5915 31.1006 19.4319C29.3862 20.4009 26.0185 20.1379 25.1006 18.9633C24.345 17.9963 24.8645 16.1999 25.7854 16.5958C27.0578 17.1428 27.0598 17.1434 28.0279 17.1528C29.0641 17.1629 29.3266 17.0577 29.3735 16.6144C29.4133 16.2367 29.2076 16.0895 28.3323 15.8691C25.4413 15.1411 24.6039 14.3068 24.6932 12.2441Z" fill="#007BFF"/>
<path d="M24.9093 24.8891C24.8777 19.956 24.8228 20.3805 25.5064 20.2733C27.5236 19.9566 28.1918 20.5102 28.1918 22.498V23.435H30.2296H32.2673L32.398 23.6765C32.7261 24.2826 32.7435 25.2509 32.4358 25.7814C32.1824 26.2185 32.1044 26.2343 30.0738 26.2607L28.1918 26.2851L28.1922 27.3654C28.1927 28.8714 28.5764 29.2568 29.7938 28.9743C30.4493 28.8222 30.4755 28.8316 30.6788 29.2897C31.7473 31.6988 27.5727 33.097 25.7205 30.9504C24.947 30.0539 24.9421 30.017 24.9093 24.8891Z" fill="#007BFF"/>
<path d="M9.18459 22.9357C9.49143 22.1107 11.073 21.2306 12.6004 21.0349C13.6546 20.8998 14.9015 21.1194 15.7541 21.5903L16.2741 21.8775L16.632 21.6785C17.6615 21.106 17.9701 21.0281 19.2037 21.0292C20.5461 21.0304 21.2769 21.296 21.989 22.0415C22.9865 23.0858 22.9947 23.1326 22.9947 27.7852V31.557L22.8407 31.6496C22.5099 31.8485 20.7534 31.7858 20.3997 31.5625C19.7941 31.1801 19.804 31.2404 19.764 27.696C19.722 23.9604 19.7039 23.8973 18.6822 23.9144C17.6188 23.9323 17.6507 23.8038 17.6671 27.9945C17.6826 31.9774 17.7501 31.6284 16.9443 31.7342C14.5501 32.0482 14.3562 31.7197 14.3562 27.3477C14.3562 24.6412 14.352 24.5549 14.2096 24.3515C13.8339 23.8149 12.9624 23.7227 12.5583 24.1767L12.3195 24.445V28.0057V31.5665L12.1615 31.6326C11.1944 32.0378 9.64208 31.7514 9.24857 31.0952L9.08887 30.829V27.0111C9.08887 23.9663 9.10825 23.141 9.18459 22.9357Z" fill="#007BFF"/>
</svg>
